<svg xmlns="http://www.w3.org/2000/svg" xmlns:xlink="http://www.w3.org/1999/xlink" width="1920" zoomAndPan="magnify" viewBox="0 0 1440 809.999993" height="1080" preserveAspectRatio="xMidYMid meet" version="1.0"><defs><clipPath id="6e153e0b9b"><path d="M 0 256.511719 L 1440 256.511719 L 1440 810 L 0 810 Z M 0 256.511719 " clip-rule="nonzero"/></clipPath><clipPath id="5d4e4d9cb3"><path d="M 740.777344 417.714844 C 1092.167969 252.542969 1435.664062 163.71875 1779.164062 405.007812 L 1779.164062 1008.523438 C 1423.820312 703.589844 1068.480469 875.113281 724.984375 1040.285156 C 373.589844 1205.457031 30.09375 1294.28125 -313.402344 1052.992188 L -313.402344 449.476562 C 41.9375 754.410156 397.28125 582.886719 740.777344 417.714844 Z M 740.777344 417.714844 " clip-rule="nonzero"/></clipPath><clipPath id="66b52ef753"><path d="M 0 0.511719 L 1440 0.511719 L 1440 554 L 0 554 Z M 0 0.511719 " clip-rule="nonzero"/></clipPath><clipPath id="d11e014e03"><path d="M 740.777344 161.714844 C 1092.167969 -3.457031 1435.664062 -92.28125 1779.164062 149.007812 L 1779.164062 752.523438 C 1423.820312 447.589844 1068.480469 619.113281 724.984375 784.285156 C 373.589844 949.457031 30.09375 1038.28125 -313.402344 796.992188 L -313.402344 193.476562 C 41.9375 498.410156 397.28125 326.886719 740.777344 161.714844 Z M 740.777344 161.714844 " clip-rule="nonzero"/></clipPath><clipPath id="bb9d69f89a"><rect x="0" width="1440" y="0" height="554"/></clipPath></defs><g clip-path="url(#6e153e0b9b)"><g clip-path="url(#5d4e4d9cb3)"><g transform="matrix(1, 0, 0, 1, 0, 256)"><g clip-path="url(#bb9d69f89a)"><g clip-path="url(#66b52ef753)"><g clip-path="url(#d11e014e03)"><rect x="-316.8" width="2073.6" fill="#ff7809" height="1166.39999" y="-434.199998" fill-opacity="1"/></g></g></g></g></g></g></svg>