<svg xmlns="http://www.w3.org/2000/svg" xmlns:xlink="http://www.w3.org/1999/xlink" width="1920" zoomAndPan="magnify" viewBox="0 0 1440 809.999993" height="1080" preserveAspectRatio="xMidYMid meet" version="1.0"><defs><clipPath id="a4afc66520"><path d="M 334.214844 19.214844 L 1105.785156 19.214844 L 1105.785156 790.785156 L 334.214844 790.785156 Z M 334.214844 19.214844 " clip-rule="nonzero"/></clipPath><clipPath id="7697da4486"><path d="M 1105.785156 215.484375 C 999.574219 109.273438 828.964844 107.183594 720.101562 208.832031 L 530.484375 19.214844 C 424.273438 125.425781 422.183594 296.035156 523.832031 404.898438 L 334.214844 594.515625 C 440.425781 700.726562 611.035156 702.816406 719.898438 601.167969 L 909.515625 790.785156 C 1015.726562 684.574219 1017.816406 513.964844 916.167969 405.101562 Z M 1105.785156 215.484375 " clip-rule="nonzero"/></clipPath><clipPath id="def9ae7ffc"><path d="M 0.214844 0.214844 L 771.785156 0.214844 L 771.785156 771.785156 L 0.214844 771.785156 Z M 0.214844 0.214844 " clip-rule="nonzero"/></clipPath><clipPath id="c99470333c"><path d="M 771.785156 196.484375 C 665.574219 90.273438 494.964844 88.183594 386.101562 189.832031 L 196.484375 0.214844 C 90.273438 106.425781 88.183594 277.035156 189.832031 385.898438 L 0.214844 575.515625 C 106.425781 681.726562 277.035156 683.816406 385.898438 582.167969 L 575.515625 771.785156 C 681.726562 665.574219 683.816406 494.964844 582.167969 386.101562 Z M 771.785156 196.484375 " clip-rule="nonzero"/></clipPath><clipPath id="c83cb418d9"><rect x="0" width="772" y="0" height="772"/></clipPath></defs><g clip-path="url(#a4afc66520)"><g clip-path="url(#7697da4486)"><g transform="matrix(1, 0, 0, 1, 334, 19)"><g clip-path="url(#c83cb418d9)"><g clip-path="url(#def9ae7ffc)"><g clip-path="url(#c99470333c)"><path fill="#ffd809" d="M 0.214844 0.214844 L 771.785156 0.214844 L 771.785156 771.785156 L 0.214844 771.785156 Z M 0.214844 0.214844 " fill-opacity="1" fill-rule="nonzero"/></g></g></g></g></g></g></svg>