<svg xmlns="http://www.w3.org/2000/svg" xmlns:xlink="http://www.w3.org/1999/xlink" width="1920" zoomAndPan="magnify" viewBox="0 0 1440 809.999993" height="1080" preserveAspectRatio="xMidYMid meet" version="1.0"><defs><clipPath id="a2b62db56c"><path d="M 317.238281 9 L 1123 9 L 1123 800.570312 L 317.238281 800.570312 Z M 317.238281 9 " clip-rule="nonzero"/></clipPath><clipPath id="538e348b33"><path d="M 1093.21875 417.902344 C 1086.710938 410.867188 1086.71875 399.53125 1093.214844 392.484375 C 1111.253906 372.921875 1121.800781 347.097656 1122.550781 320.707031 C 1125.046875 254.785156 1067.558594 210.34375 1004.09375 206.417969 C 928.523438 206.417969 856.460938 282.363281 807.664062 329.316406 C 804.367188 332.484375 799.183594 333.746094 795.894531 330.566406 C 792.597656 327.378906 793.828125 322.257812 797.019531 318.964844 C 844.871094 269.535156 926.027344 192.457031 921.128906 115.902344 C 917.441406 57.042969 868.347656 7.273438 807.191406 9.503906 C 779.777344 10.042969 753.339844 20.597656 733.164062 38.46875 C 725.976562 44.835938 714.421875 44.820312 707.230469 38.457031 C 686.730469 20.320312 659.492188 9.625 631.800781 9.625 C 565.675781 8.609375 521.757812 64.492188 517.820312 126 C 516.746094 200.179688 595.519531 271.253906 642.960938 318.953125 C 646.175781 322.183594 647.453125 327.253906 644.226562 330.480469 C 640.976562 333.726562 635.753906 332.519531 632.394531 329.378906 C 581.914062 282.21875 503.707031 202.921875 425.644531 207.472656 C 376.476562 210.589844 331.605469 243.738281 320.140625 291.460938 C 311.679688 326.6875 322.050781 365.355469 346.800781 392.136719 C 353.308594 399.175781 353.304688 410.507812 346.804688 417.550781 C 322.214844 444.1875 311.898438 482.234375 320.226562 517.3125 C 332.871094 569.949219 382.8125 600.34375 435.929688 603.535156 C 516.59375 603.535156 579.484375 531.363281 632.367188 480.617188 C 635.65625 477.457031 640.820312 476.207031 644.105469 479.371094 C 647.410156 482.5625 646.179688 487.695312 642.984375 490.996094 C 595.089844 540.453125 514.066406 617.476562 518.871094 694.050781 C 522.695312 752.1875 570.472656 801.609375 630.917969 800.550781 C 658.859375 800.550781 686.285156 790.023438 706.976562 771.617188 C 714.148438 765.234375 725.691406 765.226562 732.863281 771.609375 C 752.847656 789.378906 779.011719 799.695312 805.949219 800.429688 C 873.035156 802.734375 918.257812 746.457031 922.199219 684.078125 C 923.277344 609.957031 844.550781 538.734375 797.082031 491.132812 C 793.855469 487.898438 792.574219 482.804688 795.808594 479.574219 C 799.050781 476.335938 804.265625 477.546875 807.621094 480.675781 C 858.097656 527.828125 936.3125 607.148438 1014.375 602.582031 C 1074.160156 598.792969 1124.832031 550.609375 1122.699219 490.648438 C 1122.152344 463.902344 1111.539062 437.707031 1093.21875 417.902344 Z M 1093.21875 417.902344 " clip-rule="nonzero"/></clipPath><clipPath id="2abbe03ebe"><path d="M 0.238281 0.359375 L 806 0.359375 L 806 791.570312 L 0.238281 791.570312 Z M 0.238281 0.359375 " clip-rule="nonzero"/></clipPath><clipPath id="4284e19361"><path d="M 776.21875 408.902344 C 769.710938 401.867188 769.71875 390.53125 776.214844 383.484375 C 794.253906 363.921875 804.800781 338.097656 805.550781 311.707031 C 808.046875 245.785156 750.558594 201.34375 687.09375 197.417969 C 611.523438 197.417969 539.460938 273.363281 490.664062 320.316406 C 487.367188 323.484375 482.183594 324.746094 478.894531 321.566406 C 475.597656 318.378906 476.828125 313.257812 480.019531 309.964844 C 527.871094 260.535156 609.027344 183.457031 604.128906 106.902344 C 600.441406 48.042969 551.347656 -1.726562 490.191406 0.503906 C 462.777344 1.042969 436.339844 11.597656 416.164062 29.46875 C 408.976562 35.835938 397.421875 35.820312 390.230469 29.457031 C 369.730469 11.320312 342.492188 0.625 314.800781 0.625 C 248.675781 -0.390625 204.757812 55.492188 200.820312 117 C 199.746094 191.179688 278.519531 262.253906 325.960938 309.953125 C 329.175781 313.183594 330.453125 318.253906 327.226562 321.480469 C 323.976562 324.726562 318.753906 323.519531 315.394531 320.378906 C 264.914062 273.21875 186.707031 193.921875 108.644531 198.472656 C 59.476562 201.589844 14.605469 234.738281 3.140625 282.460938 C -5.320312 317.6875 5.050781 356.355469 29.800781 383.136719 C 36.308594 390.175781 36.304688 401.507812 29.804688 408.550781 C 5.214844 435.1875 -5.101562 473.234375 3.226562 508.3125 C 15.871094 560.949219 65.8125 591.34375 118.929688 594.535156 C 199.59375 594.535156 262.484375 522.363281 315.367188 471.617188 C 318.65625 468.457031 323.820312 467.207031 327.105469 470.371094 C 330.410156 473.5625 329.179688 478.695312 325.984375 481.996094 C 278.089844 531.453125 197.066406 608.476562 201.871094 685.050781 C 205.695312 743.1875 253.472656 792.609375 313.917969 791.550781 C 341.859375 791.550781 369.285156 781.023438 389.976562 762.617188 C 397.148438 756.234375 408.691406 756.226562 415.863281 762.609375 C 435.847656 780.378906 462.011719 790.695312 488.949219 791.429688 C 556.035156 793.734375 601.257812 737.457031 605.199219 675.078125 C 606.277344 600.957031 527.550781 529.734375 480.082031 482.132812 C 476.855469 478.898438 475.574219 473.804688 478.808594 470.574219 C 482.050781 467.335938 487.265625 468.546875 490.621094 471.675781 C 541.097656 518.828125 619.3125 598.148438 697.375 593.582031 C 757.160156 589.792969 807.832031 541.609375 805.699219 481.648438 C 805.152344 454.902344 794.539062 428.707031 776.21875 408.902344 Z M 776.21875 408.902344 " clip-rule="nonzero"/></clipPath><clipPath id="e0c486c27b"><rect x="0" width="806" y="0" height="792"/></clipPath></defs><g clip-path="url(#a2b62db56c)"><g clip-path="url(#538e348b33)"><g transform="matrix(1, 0, 0, 1, 317, 9)"><g clip-path="url(#e0c486c27b)"><g clip-path="url(#2abbe03ebe)"><g clip-path="url(#4284e19361)"><path fill="#ffd809" d="M 0.238281 0.429688 L 806.828125 0.429688 L 806.828125 791.570312 L 0.238281 791.570312 Z M 0.238281 0.429688 " fill-opacity="1" fill-rule="nonzero"/></g></g></g></g></g></g></svg>