<svg xmlns="http://www.w3.org/2000/svg" xmlns:xlink="http://www.w3.org/1999/xlink" width="1366" zoomAndPan="magnify" viewBox="0 0 1024.5 576" height="768" preserveAspectRatio="xMidYMid meet" version="1.0"><defs><filter x="0%" y="0%" width="100%" height="100%" id="0a9fa46932"><feColorMatrix values="0 0 0 0 1 0 0 0 0 1 0 0 0 0 1 0 0 0 1 0" color-interpolation-filters="sRGB"/></filter><clipPath id="a82935b982"><path d="M 0 0.140625 L 1024 0.140625 L 1024 575.859375 L 0 575.859375 Z M 0 0.140625 " clip-rule="nonzero"/></clipPath><mask id="db7fdbb35d"><g filter="url(#0a9fa46932)"><rect x="-102.45" width="1229.4" fill="#000000" y="-57.6" height="691.2" fill-opacity="0.15"/></g></mask><clipPath id="ee7b112bab"><path d="M 237 0.140625 L 337 0.140625 L 337 120 L 237 120 Z M 237 0.140625 " clip-rule="nonzero"/></clipPath><clipPath id="ae6666d891"><path d="M 188 0.140625 L 439 0.140625 L 439 197 L 188 197 Z M 188 0.140625 " clip-rule="nonzero"/></clipPath><clipPath id="03eb344c51"><path d="M 114 0.140625 L 539 0.140625 L 539 243 L 114 243 Z M 114 0.140625 " clip-rule="nonzero"/></clipPath><clipPath id="167e32a5ac"><path d="M 90 0.140625 L 708 0.140625 L 708 319 L 90 319 Z M 90 0.140625 " clip-rule="nonzero"/></clipPath><clipPath id="f4a31d1ee1"><path d="M 923 0.140625 L 1024 0.140625 L 1024 8 L 923 8 Z M 923 0.140625 " clip-rule="nonzero"/></clipPath><clipPath id="bd377bb00f"><path d="M 609 0.140625 L 1024 0.140625 L 1024 428 L 609 428 Z M 609 0.140625 " clip-rule="nonzero"/></clipPath><clipPath id="7bd41961de"><path d="M 830 25 L 1024 25 L 1024 350 L 830 350 Z M 830 25 " clip-rule="nonzero"/></clipPath><clipPath id="233946a1f8"><path d="M 661 0.140625 L 1024 0.140625 L 1024 379 L 661 379 Z M 661 0.140625 " clip-rule="nonzero"/></clipPath><clipPath id="39ea243e00"><path d="M 219 445 L 1024 445 L 1024 575.859375 L 219 575.859375 Z M 219 445 " clip-rule="nonzero"/></clipPath><clipPath id="3ec186a54e"><path d="M 471 548 L 1024 548 L 1024 575.859375 L 471 575.859375 Z M 471 548 " clip-rule="nonzero"/></clipPath><clipPath id="aee566d1a7"><path d="M 254 498 L 1024 498 L 1024 575.859375 L 254 575.859375 Z M 254 498 " clip-rule="nonzero"/></clipPath><clipPath id="52cd5c1941"><path d="M 0 457 L 200 457 L 200 575.859375 L 0 575.859375 Z M 0 457 " clip-rule="nonzero"/></clipPath><clipPath id="ab4d407ab6"><path d="M 0 548 L 107 548 L 107 575.859375 L 0 575.859375 Z M 0 548 " clip-rule="nonzero"/></clipPath><clipPath id="697de7810a"><path d="M 0 499 L 138 499 L 138 575.859375 L 0 575.859375 Z M 0 499 " clip-rule="nonzero"/></clipPath><clipPath id="159570ccbf"><path d="M 0 0.140625 L 147 0.140625 L 147 60 L 0 60 Z M 0 0.140625 " clip-rule="nonzero"/></clipPath><clipPath id="318a486cfd"><path d="M 0 0.140625 L 115 0.140625 L 115 9 L 0 9 Z M 0 0.140625 " clip-rule="nonzero"/></clipPath><clipPath id="c29a87589a"><path d="M 51 0.140625 L 743 0.140625 L 743 373 L 51 373 Z M 51 0.140625 " clip-rule="nonzero"/></clipPath><clipPath id="46808add95"><rect x="0" width="1024" y="0" height="576"/></clipPath></defs><g clip-path="url(#a82935b982)"><path fill="#ffffff" d="M 0 0.140625 L 1024 0.140625 L 1024 575.859375 L 0 575.859375 Z M 0 0.140625 " fill-opacity="1" fill-rule="nonzero"/><path fill="#ffffff" d="M 0 0.140625 L 1024 0.140625 L 1024 575.859375 L 0 575.859375 Z M 0 0.140625 " fill-opacity="1" fill-rule="nonzero"/><g mask="url(#db7fdbb35d)"><g transform="matrix(1, 0, 0, 1, 0, -0.000000000000058398)"><g clip-path="url(#46808add95)"><g clip-path="url(#ee7b112bab)"><path fill="#1d1d1b" d="M 245.335938 74.082031 C 248.792969 67.726562 253.445312 61.964844 257.945312 56.390625 C 260.769531 52.882812 263.691406 49.265625 266.316406 45.511719 C 269.042969 41.601562 271.519531 37.449219 273.914062 33.433594 C 277.113281 28.0625 280.421875 22.515625 284.339844 17.5625 C 288.945312 11.742188 298.570312 1.902344 311.292969 1.351562 C 311.597656 1.335938 311.90625 1.328125 312.214844 1.328125 C 321.28125 1.328125 329.792969 7.105469 333.144531 15.628906 C 336.097656 23.15625 334.117188 30.84375 327.84375 36.179688 C 325.875 37.855469 323.699219 39.382812 321.585938 40.863281 C 317.914062 43.445312 314.109375 46.117188 311.1875 49.695312 C 305.511719 56.625 304.046875 65.640625 302.632812 74.355469 C 302.128906 77.425781 301.613281 80.589844 300.925781 83.589844 C 297.574219 98.167969 289.40625 109.597656 278.527344 114.929688 C 267.488281 120.335938 250.832031 118.417969 243.621094 106.933594 C 237.234375 96.761719 240.316406 83.292969 245.335938 74.082031 Z M 265.5625 119.867188 C 270.46875 119.867188 275.324219 118.808594 279.433594 116.792969 C 290.886719 111.183594 299.449219 99.246094 302.949219 84.054688 C 303.652344 80.984375 304.167969 77.789062 304.671875 74.695312 C 306.046875 66.238281 307.472656 57.496094 312.789062 51.007812 C 315.53125 47.648438 319.054688 45.179688 322.777344 42.566406 C 324.929688 41.058594 327.148438 39.496094 329.1875 37.757812 C 336.164062 31.824219 338.367188 23.261719 335.070312 14.875 C 331.292969 5.246094 321.433594 -1.171875 311.203125 -0.71875 C 297.652344 -0.136719 287.535156 10.183594 282.714844 16.277344 C 278.714844 21.335938 275.371094 26.945312 272.132812 32.375 C 269.753906 36.355469 267.300781 40.476562 264.617188 44.320312 C 262.035156 48.019531 259.136719 51.613281 256.335938 55.085938 C 251.769531 60.734375 247.058594 66.578125 243.515625 73.085938 C 238.222656 82.816406 235.007812 97.109375 241.863281 108.035156 C 246.957031 116.144531 256.351562 119.867188 265.5625 119.867188 " fill-opacity="1" fill-rule="nonzero"/></g><g clip-path="url(#ae6666d891)"><path fill="#1d1d1b" d="M 216.605469 59.3125 L 278.925781 -25.828125 C 292.691406 -44.636719 306.703125 -61.964844 326.636719 -67.421875 C 331.128906 -68.652344 335.621094 -69.21875 340.097656 -69.21875 C 363.132812 -69.21875 385.617188 -54.367188 405.375 -39.886719 C 414.308594 -33.328125 423.550781 -26.554688 429.914062 -17.289062 C 435.34375 -9.390625 439.480469 2.921875 434.808594 13.765625 C 430.472656 23.820312 420.175781 29.316406 412.300781 32.15625 C 405.753906 34.519531 399.351562 36.242188 393.167969 37.917969 C 375.953125 42.566406 359.699219 46.960938 346.03125 63.851562 C 340.9375 70.132812 336.511719 77.269531 332.488281 85.671875 C 326.960938 97.222656 323.066406 109.515625 320.300781 118.929688 C 319.125 122.894531 318.011719 126.867188 316.882812 130.851562 C 312.578125 146.125 308.128906 161.914062 301.117188 176.355469 C 298.890625 180.933594 296.277344 185.644531 292.289062 189.070312 C 273.835938 204.867188 240.609375 182.949219 227.183594 172.792969 C 210.90625 160.480469 195.292969 146.449219 191.304688 127.3125 C 186.292969 103.285156 201.054688 80.539062 216.605469 59.3125 Z M 225.9375 174.445312 C 236.214844 182.222656 257.808594 196.660156 276.253906 196.660156 C 282.617188 196.660156 288.613281 194.945312 293.640625 190.640625 C 297.914062 186.972656 300.65625 182.042969 302.980469 177.261719 C 310.070312 162.660156 314.546875 146.769531 318.875 131.417969 C 320 127.445312 321.117188 123.46875 322.285156 119.511719 C 325.035156 110.171875 328.894531 97.980469 334.359375 86.5625 C 338.308594 78.316406 342.65625 71.304688 347.640625 65.152344 C 360.890625 48.78125 376.097656 44.675781 393.703125 39.917969 C 399.933594 38.234375 406.375 36.496094 413.003906 34.105469 C 421.269531 31.128906 432.082031 25.316406 436.710938 14.585938 C 440.898438 4.871094 438.953125 -7.792969 431.621094 -18.46875 C 425.058594 -28.019531 415.675781 -34.898438 406.59375 -41.554688 C 382.621094 -59.132812 354.640625 -77.230469 326.085938 -69.417969 C 305.511719 -63.792969 291.242188 -46.167969 277.257812 -27.050781 L 214.929688 58.089844 C 199.800781 78.75 184.089844 102.878906 189.28125 127.742188 C 193.398438 147.539062 209.335938 161.890625 225.9375 174.445312 " fill-opacity="1" fill-rule="nonzero"/></g><g clip-path="url(#03eb344c51)"><path fill="#1d1d1b" d="M 147.3125 96.988281 C 148.664062 95.789062 150.015625 94.597656 151.351562 93.394531 C 203.460938 46.53125 242.882812 -16.359375 262.347656 -83.6875 C 262.792969 -85.21875 263.230469 -86.765625 263.667969 -88.308594 C 267.933594 -103.347656 272.34375 -118.898438 283.214844 -129.765625 C 291.460938 -137.996094 303.15625 -142.621094 314.804688 -142.621094 C 318.035156 -142.621094 321.253906 -142.261719 324.402344 -141.535156 C 347.300781 -136.210938 363.066406 -116.734375 378.316406 -97.902344 C 383.179688 -91.894531 387.777344 -86.222656 392.578125 -81.019531 C 409.355469 -62.847656 429.023438 -47.679688 451.03125 -35.9375 C 460.847656 -30.699219 471.710938 -27.050781 482.207031 -23.527344 C 494.996094 -19.238281 508.21875 -14.804688 519.414062 -7.488281 C 531.003906 0.0820312 540.433594 15.289062 535.074219 28.554688 C 530.203125 40.628906 515.84375 45.21875 505.03125 45.476562 C 497.519531 45.671875 489.9375 44.378906 482.59375 43.132812 C 477.738281 42.304688 472.722656 41.457031 467.726562 41.019531 C 456.9375 40.089844 446.667969 40.742188 437.222656 42.960938 C 406.417969 50.1875 375.222656 74.566406 357.757812 105.054688 C 346.015625 125.550781 338.738281 148.316406 331.703125 170.339844 C 330.261719 174.832031 328.960938 180.351562 327.578125 186.195312 C 323.957031 201.507812 319.855469 218.878906 311.429688 227.359375 C 299.417969 239.445312 271.949219 241.855469 257.167969 239.6875 C 236.953125 236.691406 218.515625 225.296875 202.246094 215.234375 L 136.183594 174.402344 C 131.320312 171.398438 126.285156 168.285156 122.660156 163.824219 C 113.480469 152.542969 115.902344 135.933594 122.375 124.488281 C 128.472656 113.714844 138.054688 105.210938 147.3125 96.988281 Z M 120.570312 123.46875 C 113.75 135.527344 111.257812 153.085938 121.050781 165.136719 C 124.902344 169.863281 130.082031 173.066406 135.09375 176.167969 L 201.160156 217 C 217.589844 227.15625 236.222656 238.675781 256.871094 241.734375 C 260.222656 242.226562 264.113281 242.503906 268.296875 242.503906 C 283.683594 242.503906 302.957031 238.820312 312.894531 228.816406 C 321.742188 219.921875 325.917969 202.253906 329.59375 186.664062 C 330.96875 180.871094 332.261719 175.390625 333.671875 170.972656 C 340.679688 149.054688 347.925781 126.390625 359.554688 106.09375 C 376.753906 76.074219 407.421875 52.082031 437.691406 44.976562 C 446.925781 42.808594 456.980469 42.175781 467.550781 43.082031 C 472.453125 43.511719 477.441406 44.351562 482.246094 45.171875 C 489.683594 46.433594 497.375 47.746094 505.078125 47.550781 C 516.523438 47.273438 531.75 42.328125 537 29.332031 C 542.773438 15.039062 532.832031 -1.199219 520.546875 -9.226562 C 509.125 -16.679688 495.78125 -21.164062 482.871094 -25.496094 C 472.445312 -28.992188 461.664062 -32.609375 452.007812 -37.765625 C 430.203125 -49.394531 410.722656 -64.425781 394.097656 -82.425781 C 389.347656 -87.574219 384.773438 -93.222656 379.925781 -99.203125 C 364.460938 -118.3125 348.464844 -138.0625 324.875 -143.550781 C 309.699219 -147.078125 292.773438 -142.238281 281.75 -131.230469 C 270.5 -119.980469 266.015625 -104.175781 261.675781 -88.878906 C 261.242188 -87.332031 260.804688 -85.792969 260.359375 -84.261719 C 241 -17.304688 201.792969 45.242188 149.96875 91.855469 C 148.632812 93.054688 147.289062 94.242188 145.945312 95.441406 C 136.550781 103.777344 126.835938 112.398438 120.570312 123.46875 " fill-opacity="1" fill-rule="nonzero"/></g><g clip-path="url(#167e32a5ac)"><path fill="#1d1d1b" d="M 220.269531 -72.066406 C 222.179688 -84.378906 223.726562 -96.988281 225.214844 -109.183594 C 229.066406 -140.554688 233.042969 -172.996094 243.636719 -203.167969 C 247.246094 -213.457031 252.636719 -226.535156 262.300781 -236.488281 C 270.742188 -245.175781 281.441406 -250.046875 291.695312 -250.046875 C 293.265625 -250.046875 294.828125 -249.933594 296.367188 -249.699219 C 307.761719 -247.984375 316.683594 -240.554688 326.113281 -232.695312 C 334.660156 -225.570312 343.496094 -218.207031 354.308594 -215.585938 C 363.503906 -213.34375 373.433594 -214.675781 383.042969 -215.957031 C 396.488281 -217.761719 409.183594 -219.460938 419.085938 -211.730469 C 430.421875 -202.886719 431.054688 -186.964844 431.660156 -171.5625 C 431.734375 -169.628906 431.808594 -167.71875 431.90625 -165.839844 C 433.644531 -132.234375 447.875 -98.921875 470.949219 -74.421875 C 487.898438 -56.429688 501.03125 -46.457031 525.742188 -41.851562 C 542.390625 -38.753906 558.078125 -34.988281 566.996094 -23.148438 C 571.535156 -17.109375 573.59375 -9.90625 575.769531 -2.28125 C 577.015625 2.121094 578.320312 6.667969 580.132812 10.933594 C 586.277344 25.339844 599.257812 37.933594 616.675781 46.402344 C 625.835938 50.851562 636.683594 53.757812 647.171875 56.574219 C 667.171875 61.941406 687.851562 67.484375 699.953125 83.882812 C 703.941406 89.289062 705.835938 97.320312 704.652344 103.84375 C 703.796875 108.585938 701.433594 112.332031 697.808594 114.695312 C 685.625 122.636719 663.871094 112.414062 657.492188 109.09375 C 650.214844 105.308594 643.3125 100.5625 636.625 95.984375 C 631.84375 92.695312 626.90625 89.304688 621.839844 86.269531 C 596.507812 71.070312 566.136719 64.34375 526.316406 65.089844 C 504.042969 65.511719 481.695312 67.867188 459.890625 72.082031 C 439.042969 76.121094 422.839844 84.742188 408.433594 93.449219 C 380.664062 110.246094 368.902344 140.59375 358.375 172.847656 C 349.988281 198.539062 341.628906 224.234375 333.273438 249.941406 L 321.085938 287.421875 C 317.0625 299.78125 311.882812 311.730469 301.289062 315.378906 C 290.570312 319.078125 278.789062 312.289062 271.851562 303.917969 C 267.503906 298.664062 264.171875 292.507812 260.949219 286.550781 C 258.730469 282.445312 256.441406 278.203125 253.808594 274.246094 C 239 251.925781 214.394531 238.992188 192.273438 229.285156 C 187.71875 227.289062 183.105469 225.34375 178.5 223.410156 C 159.785156 215.535156 140.433594 207.394531 124.3125 194.808594 C 106.503906 180.902344 89.03125 156.507812 93.417969 129.765625 C 95.984375 114.128906 106.085938 98.757812 123.4375 84.085938 C 129.394531 79.050781 135.804688 74.324219 141.996094 69.757812 C 150.753906 63.292969 159.808594 56.617188 167.789062 48.917969 C 194.824219 22.847656 211.496094 -15.589844 220.269531 -72.066406 Z M 140.765625 68.09375 C 134.542969 72.679688 128.117188 77.425781 122.101562 82.507812 C 104.359375 97.503906 94.023438 113.296875 91.371094 129.433594 C 86.84375 157.066406 104.757812 182.164062 123.039062 196.441406 C 139.375 209.199219 158.855469 217.390625 177.6875 225.3125 C 182.292969 227.253906 186.890625 229.1875 191.449219 231.179688 C 213.285156 240.773438 237.566406 253.519531 252.085938 275.394531 C 254.660156 279.273438 256.933594 283.472656 259.128906 287.535156 C 262.398438 293.582031 265.773438 299.832031 270.257812 305.246094 C 276.207031 312.417969 285.570312 318.480469 295.070312 318.480469 C 297.378906 318.480469 299.695312 318.132812 301.96875 317.347656 C 313.414062 313.386719 318.867188 300.933594 323.058594 288.0625 L 335.25 250.582031 C 343.601562 224.882812 351.953125 199.179688 360.339844 173.488281 C 370.75 141.625 382.339844 111.652344 409.507812 95.222656 C 425.964844 85.265625 440.898438 77.871094 460.289062 74.121094 C 481.972656 69.921875 504.207031 67.582031 526.359375 67.160156 C 565.742188 66.425781 595.792969 73.054688 620.777344 88.042969 C 625.78125 91.046875 630.703125 94.421875 635.453125 97.691406 C 642.1875 102.304688 649.148438 107.085938 656.539062 110.933594 C 663.164062 114.386719 685.8125 124.984375 698.941406 116.429688 C 703.050781 113.75 705.730469 109.523438 706.695312 104.214844 C 707.988281 97.042969 705.996094 88.585938 701.617188 82.652344 C 689.089844 65.671875 668.054688 60.03125 647.714844 54.566406 C 636.835938 51.652344 626.558594 48.902344 617.582031 44.539062 C 600.609375 36.292969 587.992188 24.0625 582.042969 10.117188 C 580.277344 5.972656 578.992188 1.488281 577.761719 -2.847656 C 575.625 -10.320312 573.421875 -18.050781 568.648438 -24.394531 C 559.292969 -36.828125 543.191406 -40.710938 526.132812 -43.882812 C 501.972656 -48.382812 489.101562 -58.175781 472.453125 -75.847656 C 449.71875 -99.980469 435.691406 -132.824219 433.976562 -165.945312 C 433.878906 -167.816406 433.804688 -169.726562 433.734375 -171.644531 C 433.132812 -186.777344 432.453125 -203.929688 420.363281 -213.367188 C 409.769531 -221.621094 396.042969 -219.792969 382.765625 -218.011719 C 373.355469 -216.757812 363.617188 -215.445312 354.804688 -217.589844 C 344.453125 -220.109375 335.800781 -227.320312 327.4375 -234.289062 C 318.203125 -241.984375 308.652344 -249.941406 296.683594 -251.746094 C 284.414062 -253.601562 271.019531 -248.4375 260.8125 -237.929688 C 250.863281 -227.691406 245.367188 -214.347656 241.6875 -203.855469 C 231.011719 -173.472656 227.019531 -140.917969 223.160156 -109.433594 C 221.671875 -97.253906 220.125 -84.667969 218.222656 -72.382812 C 209.523438 -16.382812 193.042969 21.691406 166.359375 47.429688 C 158.476562 55.027344 149.472656 61.664062 140.765625 68.09375 " fill-opacity="1" fill-rule="nonzero"/></g><path fill="#1d1d1b" d="M 826.171875 436.015625 C 827.574219 454.105469 828.109375 473.367188 822.605469 491.691406 C 816.742188 511.183594 803.949219 526.691406 788.367188 533.171875 C 772.796875 539.65625 753.355469 538.320312 730.578125 529.207031 C 723.585938 526.40625 716.632812 523.113281 709.90625 519.914062 C 698.738281 514.613281 687.179688 509.132812 675.03125 505.75 C 629.933594 493.214844 583.214844 509.894531 535.332031 529.644531 C 485.761719 550.089844 441.132812 566.066406 397.027344 554.523438 C 364.898438 546.121094 337.207031 521.28125 322.953125 488.097656 C 309.707031 457.230469 310.5 424.3125 325.125 397.765625 C 330.238281 388.488281 336.957031 379.683594 343.457031 371.160156 C 351.082031 361.171875 358.964844 350.835938 364.265625 339.71875 C 373.175781 321.042969 378.777344 299.417969 384.183594 278.503906 C 386.855469 268.167969 389.378906 258.40625 392.285156 248.929688 C 396.300781 235.84375 400.839844 221 406.351562 207.140625 C 412.097656 192.71875 418.347656 180.707031 425.453125 170.4375 C 444.304688 143.21875 474.414062 122.960938 508.066406 114.875 C 526.996094 110.324219 554.3125 107.492188 576.984375 119.84375 C 588.589844 126.164062 598.917969 134.839844 608.898438 143.226562 C 616.277344 149.425781 623.910156 155.835938 632.039062 161.292969 C 648.476562 172.316406 667.210938 179.648438 685.335938 186.730469 C 697.984375 191.683594 711.082031 196.804688 723.269531 203.136719 C 796.363281 241.128906 819.570312 350.75 826.171875 436.015625 Z M 686.085938 184.804688 C 668.070312 177.753906 649.4375 170.46875 633.195312 159.566406 C 625.15625 154.175781 617.574219 147.808594 610.234375 141.640625 C 600.171875 133.191406 589.765625 124.449219 577.972656 118.023438 C 554.71875 105.355469 526.859375 108.222656 507.582031 112.859375 C 473.441406 121.066406 442.886719 141.625 423.753906 169.253906 C 416.550781 179.65625 410.230469 191.804688 404.433594 206.382812 C 398.890625 220.3125 394.324219 235.195312 390.304688 248.324219 C 387.382812 257.847656 384.734375 268.078125 382.175781 277.988281 C 376.792969 298.804688 371.226562 320.332031 362.394531 338.828125 C 357.183594 349.746094 349.371094 360 341.8125 369.90625 C 335.265625 378.484375 328.492188 387.355469 323.3125 396.769531 C 308.371094 423.875 307.550781 457.464844 321.054688 488.917969 C 335.558594 522.683594 363.761719 547.960938 396.503906 556.53125 C 406.945312 559.257812 417.390625 560.480469 427.921875 560.480469 C 462.492188 560.480469 497.851562 547.335938 536.117188 531.554688 C 583.652344 511.949219 630.007812 495.382812 674.480469 507.75 C 686.453125 511.078125 697.929688 516.523438 709.015625 521.792969 C 715.765625 524.988281 722.75 528.308594 729.808594 531.125 C 753.101562 540.457031 773.078125 541.785156 789.160156 535.089844 C 805.308594 528.363281 818.550781 512.371094 824.585938 492.292969 C 830.1875 473.644531 829.652344 454.144531 828.238281 435.855469 C 821.59375 350.0625 798.160156 239.726562 724.226562 201.296875 C 711.9375 194.914062 698.792969 189.773438 686.085938 184.804688 " fill-opacity="1" fill-rule="nonzero"/><path fill="#1d1d1b" d="M 781.820312 385.15625 C 785.980469 404.402344 786.457031 419.765625 783.324219 433.492188 C 779.449219 450.503906 769.234375 464.699219 756.007812 471.457031 C 743.210938 477.996094 726.816406 478.597656 707.261719 473.246094 C 699.839844 471.214844 692.457031 468.535156 685.328125 465.953125 C 676.8125 462.871094 668.015625 459.683594 659.039062 457.539062 C 615.1875 447.078125 577.050781 464.8125 535.269531 487.265625 C 532.589844 488.707031 529.910156 490.164062 527.230469 491.613281 C 504.707031 503.816406 481.414062 516.441406 456.339844 522.667969 C 429.703125 529.214844 388.609375 524.894531 364.9375 503.953125 C 351.65625 492.203125 346.007812 477.117188 348.152344 459.117188 C 349.671875 446.351562 356.238281 433.863281 362.582031 421.769531 C 366.34375 414.617188 370.230469 407.21875 372.917969 399.976562 C 380.960938 378.324219 387.484375 355.582031 393.800781 333.589844 C 396.671875 323.59375 399.636719 313.257812 402.695312 303.207031 C 417.207031 255.511719 434.746094 207.003906 475.011719 183.898438 C 490.625 174.9375 509.394531 170.378906 529.386719 170.378906 C 542.804688 170.378906 556.78125 172.429688 570.726562 176.570312 C 603.394531 186.285156 632.855469 205.894531 657.363281 223.808594 C 687.480469 245.804688 713.296875 267.820312 736.300781 291.105469 C 765.398438 320.550781 777.828125 366.683594 781.820312 385.15625 Z M 571.320312 174.589844 C 536.039062 164.109375 500.5625 166.84375 473.976562 182.101562 C 433.054688 205.589844 415.34375 254.507812 400.710938 302.597656 C 397.652344 312.675781 394.679688 323.019531 391.808594 333.015625 C 385.511719 354.972656 378.988281 377.675781 370.976562 399.253906 C 368.335938 406.367188 364.644531 413.386719 360.753906 420.808594 C 354.316406 433.0625 347.664062 445.726562 346.09375 458.863281 C 343.894531 477.328125 349.929688 493.449219 363.5625 505.507812 C 380.996094 520.925781 407.625 527.546875 431.296875 527.546875 C 440.492188 527.546875 449.242188 526.542969 456.839844 524.675781 C 482.167969 518.386719 505.582031 505.703125 528.21875 493.433594 C 530.898438 491.984375 533.578125 490.535156 536.25 489.09375 C 577.648438 466.84375 615.4375 449.265625 658.558594 459.550781 C 667.421875 461.671875 676.164062 464.835938 684.613281 467.90625 C 691.792969 470.503906 699.214844 473.191406 706.710938 475.246094 C 726.773438 480.734375 743.683594 480.078125 756.949219 473.304688 C 770.714844 466.269531 781.332031 451.554688 785.347656 433.960938 C 788.546875 419.917969 788.074219 404.273438 783.84375 384.71875 C 779.8125 366.070312 767.257812 319.484375 737.773438 289.648438 C 714.691406 266.289062 688.789062 244.203125 658.585938 222.132812 C 633.929688 204.125 604.285156 184.382812 571.320312 174.589844 " fill-opacity="1" fill-rule="nonzero"/><path fill="#1d1d1b" d="M 729.195312 392.082031 C 721.164062 405.089844 704.394531 413.597656 684.332031 414.835938 C 672.554688 415.5625 660.566406 414.097656 648.984375 412.683594 C 643.230469 411.976562 637.289062 411.25 631.421875 410.796875 C 583.207031 407.046875 533.585938 421.804688 495.238281 451.242188 C 492.015625 453.707031 488.8125 456.332031 485.710938 458.863281 C 477.738281 465.378906 469.5 472.113281 460.289062 476.898438 C 445.792969 484.441406 430.519531 485.421875 419.425781 479.535156 C 405.671875 472.226562 400.113281 456.160156 399.503906 443.558594 C 398.785156 428.886719 403.148438 414.582031 407.363281 400.761719 L 445.558594 275.535156 C 450.519531 259.265625 456.136719 240.835938 468.714844 227.699219 C 477.820312 218.199219 486.554688 213.488281 495.433594 213.300781 C 495.617188 213.300781 495.796875 213.292969 495.980469 213.292969 C 510.882812 213.292969 523.976562 225.871094 537.820312 239.167969 L 539.128906 240.421875 C 563.566406 263.878906 593.226562 281.804688 624.90625 292.28125 C 632.910156 294.925781 641.238281 297.183594 649.292969 299.363281 C 668.328125 304.507812 688.003906 309.835938 704.582031 320.722656 C 728.175781 336.195312 743.699219 368.570312 729.195312 392.082031 Z M 625.554688 290.3125 C 594.167969 279.9375 564.777344 262.171875 540.5625 238.933594 L 539.257812 237.671875 C 525.546875 224.511719 511.433594 210.929688 495.390625 211.230469 C 485.9375 211.421875 476.71875 216.34375 467.21875 226.265625 C 454.300781 239.761719 448.601562 258.441406 443.574219 274.925781 L 405.382812 400.152344 C 401.117188 414.15625 396.695312 428.625 397.433594 443.65625 C 398.074219 456.832031 403.933594 473.652344 418.453125 481.363281 C 423.550781 484.066406 429.46875 485.410156 435.773438 485.410156 C 443.921875 485.410156 452.730469 483.160156 461.242188 478.734375 C 470.648438 473.855469 478.96875 467.046875 487.023438 460.46875 C 490.105469 457.949219 493.296875 455.335938 496.5 452.882812 C 534.445312 423.753906 583.5625 409.175781 631.261719 412.859375 C 637.089844 413.3125 643.003906 414.035156 648.734375 414.738281 C 660.414062 416.164062 672.488281 417.644531 684.460938 416.898438 C 705.503906 415.605469 722.453125 406.953125 730.949219 393.167969 C 746.09375 368.636719 730.125 335 705.722656 318.988281 C 688.863281 307.925781 669.027344 302.558594 649.84375 297.363281 C 641.816406 295.183594 633.511719 292.945312 625.554688 290.3125 " fill-opacity="1" fill-rule="nonzero"/><path fill="#1d1d1b" d="M 606.105469 376.914062 C 597.996094 380.332031 588.839844 380.597656 579.996094 380.855469 C 577.824219 380.914062 575.664062 380.980469 573.527344 381.085938 C 544.464844 382.523438 515.527344 392.769531 492.046875 409.953125 C 490.941406 410.761719 489.839844 411.597656 488.738281 412.429688 C 483.832031 416.113281 478.765625 419.933594 473.042969 422.109375 C 467.183594 424.335938 458.296875 425.050781 452.527344 419.707031 L 452.527344 419.714844 C 448.796875 416.242188 447.089844 410.15625 447.460938 401.601562 C 448.78125 371.421875 476.03125 319.425781 489.9375 308.628906 C 505.386719 296.640625 517.980469 301.296875 534.523438 313.386719 C 558.441406 330.863281 570.453125 334.527344 599.355469 338.058594 C 607.757812 339.085938 617.785156 343.261719 620.691406 351.90625 C 624.113281 362.113281 615.785156 372.835938 606.105469 376.914062 Z M 599.605469 336.003906 C 571.125 332.523438 559.28125 328.910156 535.746094 311.710938 C 521.898438 301.585938 506.84375 292.878906 488.664062 306.996094 C 474.144531 318.269531 446.757812 370.230469 445.398438 401.503906 C 444.992188 410.699219 446.917969 417.335938 451.128906 421.230469 C 454.414062 424.28125 459.082031 425.867188 464.164062 425.867188 C 467.28125 425.867188 470.566406 425.265625 473.78125 424.046875 C 479.777344 421.761719 484.964844 417.863281 489.984375 414.082031 C 491.078125 413.257812 492.171875 412.429688 493.269531 411.628906 C 516.425781 394.679688 544.964844 384.574219 573.625 383.15625 C 575.753906 383.050781 577.898438 382.984375 580.050781 382.929688 C 589.09375 382.664062 598.441406 382.394531 606.90625 378.824219 C 617.445312 374.382812 626.453125 362.574219 622.648438 351.25 C 619.445312 341.691406 608.636719 337.109375 599.605469 336.003906 " fill-opacity="1" fill-rule="nonzero"/><path fill="#1d1d1b" d="M 528.488281 366.621094 C 524.019531 370.667969 516.9375 372.1875 510 370.59375 C 504.292969 369.292969 499.15625 365.171875 497.503906 360.574219 C 496.363281 357.386719 496.9375 354.277344 499.210938 351.316406 C 502.289062 347.316406 509.8125 345.359375 515.203125 344.234375 C 516.460938 343.972656 517.792969 343.835938 519.15625 343.835938 C 523.695312 343.835938 528.503906 345.40625 531.238281 349.308594 C 534.679688 354.230469 533.414062 362.160156 528.488281 366.621094 Z M 514.785156 342.210938 C 509.070312 343.398438 501.066406 345.511719 497.570312 350.050781 C 494.875 353.558594 494.175781 357.433594 495.554688 361.277344 C 497.429688 366.492188 503.175781 371.160156 509.53125 372.617188 C 511.496094 373.0625 513.472656 373.289062 515.414062 373.289062 C 520.960938 373.289062 526.195312 371.484375 529.871094 368.160156 C 535.640625 362.945312 537.015625 353.953125 532.9375 348.125 C 528.84375 342.273438 520.871094 340.9375 514.785156 342.210938 " fill-opacity="1" fill-rule="nonzero"/><path fill="#1d1d1b" d="M 1006.234375 309.164062 C 1005.238281 315.015625 998.367188 318.195312 992.507812 317.492188 C 964.785156 314.140625 929.183594 289.4375 912.097656 268.476562 C 894.765625 247.230469 885.175781 226.136719 880.992188 200.085938 C 880.222656 195.308594 879.269531 189.367188 881.460938 184.488281 C 882.699219 181.71875 885.265625 179.875 889.085938 178.992188 C 890.746094 178.613281 892.542969 178.433594 894.386719 178.433594 C 901.339844 178.433594 908.988281 180.894531 912.613281 183.921875 C 917.777344 188.242188 920.828125 194.644531 922.675781 199.082031 C 925.597656 206.136719 927.789062 213.828125 929.910156 221.265625 C 934.554688 237.582031 939.355469 254.441406 952.222656 265.628906 C 957.007812 269.78125 962.625 272.839844 968.0625 275.800781 C 972.757812 278.359375 977.621094 281.003906 981.847656 284.324219 C 983.253906 285.425781 985.125 286.703125 987.292969 288.191406 C 995.316406 293.695312 1007.457031 302.007812 1006.234375 309.164062 Z M 983.125 282.6875 C 978.765625 279.265625 973.828125 276.578125 969.050781 273.980469 C 963.71875 271.074219 958.191406 268.0625 953.585938 264.058594 C 941.175781 253.285156 936.667969 237.460938 931.902344 220.699219 C 929.765625 213.203125 927.554688 205.457031 924.585938 198.289062 C 922.65625 193.648438 919.460938 186.949219 913.941406 182.335938 C 908.972656 178.183594 897.355469 174.953125 888.617188 176.96875 C 884.195312 177.996094 881.066406 180.296875 879.566406 183.636719 C 877.132812 189.085938 878.132812 195.367188 878.945312 200.40625 C 883.136719 226.484375 893.15625 248.535156 910.484375 269.789062 C 927.828125 291.058594 964.023438 316.132812 992.257812 319.546875 C 992.863281 319.621094 993.476562 319.660156 994.09375 319.660156 C 1000.414062 319.660156 1007.195312 315.90625 1008.28125 309.511719 C 1009.714844 301.046875 997.4375 292.628906 988.46875 286.476562 C 986.324219 285.019531 984.484375 283.757812 983.125 282.6875 " fill-opacity="1" fill-rule="nonzero"/><g clip-path="url(#f4a31d1ee1)"><path fill="#1d1d1b" d="M 1019.003906 -135.488281 C 1007.714844 -135.84375 997.742188 -139.074219 988.105469 -142.199219 C 980.683594 -144.601562 971.027344 -144.707031 959.394531 -142.515625 C 939.960938 -138.839844 921.152344 -121.308594 924.140625 -101.074219 C 927.054688 -81.332031 947.238281 -71.09375 965.0625 -62.0625 C 967.738281 -60.703125 970.386719 -59.359375 972.9375 -58.007812 C 1000.429688 -43.429688 1022.671875 -20.082031 1035.996094 7.996094 L 1035.996094 3.300781 C 1022.316406 -23.480469 1000.542969 -45.714844 973.90625 -59.835938 C 971.351562 -61.195312 968.6875 -62.539062 966 -63.90625 C 947.78125 -73.144531 928.945312 -82.703125 926.195312 -101.375 C 923.378906 -120.433594 941.289062 -136.976562 959.785156 -140.472656 C 965.132812 -141.484375 970.128906 -141.996094 974.644531 -141.996094 C 979.515625 -141.996094 983.839844 -141.40625 987.464844 -140.230469 C 997.242188 -137.066406 1007.351562 -133.789062 1018.941406 -133.417969 C 1024.527344 -133.238281 1030.230469 -133.660156 1035.996094 -134.628906 L 1035.996094 -136.734375 C 1030.257812 -135.746094 1024.574219 -135.3125 1019.003906 -135.488281 " fill-opacity="1" fill-rule="nonzero"/></g><g clip-path="url(#bd377bb00f)"><path fill="#1d1d1b" d="M 963.304688 -10.820312 C 949.828125 -29.746094 935.023438 -49.492188 915.453125 -64.652344 C 875.117188 -95.894531 826.109375 -117.503906 786.722656 -134.882812 C 757.199219 -147.90625 720.460938 -164.101562 683.15625 -161.074219 C 648.257812 -158.222656 610.046875 -132.007812 609.179688 -94.625 C 608.65625 -72 622.550781 -48.183594 646.347656 -30.910156 C 660.390625 -20.71875 676.367188 -13.257812 691.808594 -6.039062 C 698.949219 -2.695312 706.328125 0.753906 713.410156 4.417969 C 748.382812 22.539062 767.875 44.441406 772.996094 71.378906 C 776.347656 88.980469 772.261719 105.816406 768.304688 122.101562 C 765.453125 133.820312 762.515625 145.945312 762.257812 158.441406 C 761.78125 181.289062 772.910156 201.21875 783.679688 220.488281 C 785.039062 222.925781 786.402344 225.359375 787.734375 227.796875 C 800.007812 250.199219 812.332031 272.585938 824.652344 294.976562 L 842.734375 327.835938 C 852.179688 345.027344 862.886719 364.5 876.695312 381.34375 C 890.9375 398.703125 906.8125 402.6875 926.90625 407.726562 C 928.832031 408.214844 930.808594 408.707031 932.832031 409.226562 C 956.804688 415.386719 981.726562 419.101562 1005.820312 422.695312 C 1015.800781 424.175781 1025.902344 425.695312 1035.996094 427.386719 L 1035.996094 425.285156 C 1026 423.617188 1016.003906 422.109375 1006.128906 420.644531 C 982.082031 417.058594 957.21875 413.355469 933.34375 407.21875 C 931.320312 406.699219 929.34375 406.207031 927.410156 405.722656 C 907.683594 400.769531 892.105469 396.859375 878.296875 380.023438 C 864.609375 363.335938 853.949219 343.941406 844.554688 326.839844 L 826.464844 293.972656 C 814.144531 271.59375 801.828125 249.207031 789.550781 226.792969 C 788.214844 224.367188 786.855469 221.921875 785.484375 219.476562 C 774.859375 200.449219 763.859375 180.773438 764.328125 158.484375 C 764.578125 146.210938 767.492188 134.203125 770.320312 122.585938 C 774.324219 106.09375 778.46875 89.03125 775.027344 70.988281 C 769.785156 43.390625 749.9375 21.011719 714.367188 2.582031 C 707.246094 -1.109375 699.847656 -4.566406 692.683594 -7.914062 C 677.328125 -15.09375 661.449219 -22.515625 647.570312 -32.585938 C 624.316406 -49.460938 610.742188 -72.632812 611.253906 -94.574219 C 612.09375 -130.8125 649.324219 -156.234375 683.328125 -159.007812 C 686.363281 -159.261719 689.398438 -159.375 692.417969 -159.375 C 726.0625 -159.375 758.996094 -144.84375 785.890625 -132.980469 C 825.167969 -115.660156 874.054688 -94.097656 914.183594 -63.019531 C 933.535156 -48.027344 948.234375 -28.417969 961.621094 -9.625 C 971.375 4.070312 981.921875 17.167969 992.125 29.824219 C 1008.078125 49.628906 1023.53125 68.871094 1035.996094 89.960938 L 1035.996094 85.867188 C 1023.796875 65.851562 1008.984375 47.453125 993.738281 28.53125 C 983.554688 15.886719 973.023438 2.824219 963.304688 -10.820312 " fill-opacity="1" fill-rule="nonzero"/></g><g clip-path="url(#7bd41961de)"><path fill="#1d1d1b" d="M 988.128906 230.160156 C 983.027344 223.296875 978.148438 216.003906 973.4375 208.957031 C 961.6875 191.40625 949.546875 173.261719 932.808594 159.898438 C 926.90625 155.195312 920.351562 151.003906 914.015625 146.949219 C 900.910156 138.570312 887.351562 129.902344 879.617188 116.515625 C 871.464844 102.402344 872.074219 88.527344 872.65625 75.109375 C 872.710938 73.816406 872.769531 72.535156 872.816406 71.25 C 873.164062 62.023438 873.207031 52.179688 869.605469 42.214844 C 867.015625 35.078125 860.578125 28.984375 853.191406 26.699219 C 847.621094 24.976562 842.230469 25.699219 838.023438 28.734375 C 827.800781 36.074219 829.3125 50.511719 832.460938 65.023438 C 839.996094 99.707031 838.460938 132.710938 835.675781 163.210938 C 833.269531 189.515625 842.820312 213.910156 851.402344 232.214844 C 872.929688 278.132812 911.539062 314.8125 957.324219 332.855469 C 982.445312 342.761719 1009.472656 346.273438 1035.996094 349.039062 L 1035.996094 346.960938 C 1009.683594 344.210938 982.890625 340.703125 958.085938 330.925781 C 912.785156 313.074219 874.589844 276.773438 853.277344 231.335938 C 844.804688 213.261719 835.382812 189.214844 837.738281 163.402344 C 840.539062 132.738281 842.078125 99.542969 834.484375 64.585938 C 831.492188 50.761719 829.984375 37.0625 839.226562 30.40625 C 841.582031 28.714844 844.367188 27.859375 847.371094 27.859375 C 849.054688 27.859375 850.800781 28.132812 852.582031 28.683594 C 859.261719 30.746094 865.324219 36.46875 867.652344 42.929688 C 871.132812 52.527344 871.085938 62.144531 870.746094 71.167969 C 870.695312 72.445312 870.640625 73.734375 870.582031 75.011719 C 869.984375 88.730469 869.371094 102.910156 877.828125 117.554688 C 885.816406 131.378906 899.582031 140.183594 912.898438 148.6875 C 919.195312 152.71875 925.703125 156.878906 931.511719 161.519531 C 948 174.679688 960.058594 192.6875 971.714844 210.113281 C 976.441406 217.179688 981.335938 224.488281 986.46875 231.398438 C 999.832031 249.382812 1016.480469 266.621094 1035.996094 282.785156 L 1035.996094 280.066406 C 1017.183594 264.339844 1001.09375 247.601562 988.128906 230.160156 " fill-opacity="1" fill-rule="nonzero"/></g><g clip-path="url(#233946a1f8)"><path fill="#1d1d1b" d="M 998.875 135.59375 C 992.320312 128.59375 985.09375 122.070312 978.101562 115.757812 C 969.820312 108.269531 961.257812 100.539062 953.820312 92.015625 C 937.988281 73.878906 926.914062 51.847656 916.207031 30.546875 C 912.671875 23.511719 909.019531 16.242188 905.25 9.226562 C 881.945312 -34.164062 843.007812 -65.058594 811.695312 -87.128906 C 769.5 -116.863281 722.523438 -123.703125 686.046875 -105.414062 C 680.949219 -102.863281 676.472656 -99.707031 672.742188 -96.03125 C 668.214844 -91.589844 665.027344 -86.601562 663.253906 -81.21875 C 661.027344 -74.503906 661.304688 -67.453125 664.007812 -61.910156 C 668.242188 -53.199219 682.4375 -47.324219 692.804688 -43.027344 C 694.519531 -42.3125 696.105469 -41.660156 697.484375 -41.050781 C 702.9375 -38.65625 708.539062 -36.316406 713.945312 -34.058594 C 729.761719 -27.445312 746.125 -20.605469 760.898438 -11.476562 C 776.777344 -1.652344 797.375 15.257812 805.285156 40.03125 C 811.554688 59.660156 808.820312 80.898438 806.171875 101.4375 C 805.566406 106.15625 804.941406 111.03125 804.433594 115.796875 C 798.863281 168.347656 807.582031 218.878906 829.660156 261.921875 C 853.320312 308.046875 892.875 344.273438 938.199219 361.292969 C 969.328125 373 1003.035156 376.007812 1035.996094 378.308594 L 1035.996094 376.226562 C 1003.230469 373.953125 969.738281 370.933594 938.917969 359.359375 C 894.078125 342.507812 854.929688 306.644531 831.507812 260.972656 C 809.613281 218.296875 800.960938 168.164062 806.496094 116.015625 C 807 111.273438 807.621094 106.40625 808.230469 101.707031 C 810.898438 80.9375 813.667969 59.464844 807.257812 39.40625 C 799.15625 14.019531 778.167969 -3.230469 761.980469 -13.234375 C 747.074219 -22.453125 730.644531 -29.324219 714.738281 -35.96875 C 709.339844 -38.226562 703.753906 -40.558594 698.316406 -42.945312 C 696.925781 -43.558594 695.332031 -44.222656 693.605469 -44.9375 C 684.113281 -48.871094 669.761719 -54.820312 665.871094 -62.816406 C 663.410156 -67.882812 663.164062 -74.355469 665.222656 -80.574219 C 666.890625 -85.640625 669.90625 -90.34375 674.191406 -94.550781 C 677.765625 -98.078125 682.074219 -101.105469 686.96875 -103.558594 C 700.179688 -110.179688 714.796875 -113.433594 730.078125 -113.433594 C 756.203125 -113.433594 784.273438 -103.914062 810.503906 -85.4375 C 841.632812 -63.496094 880.328125 -32.804688 903.417969 10.199219 C 907.183594 17.199219 910.824219 24.460938 914.355469 31.476562 C 925.117188 52.898438 936.253906 75.042969 952.257812 93.378906 C 959.777344 101.988281 968.386719 109.765625 976.714844 117.292969 C 983.667969 123.574219 990.863281 130.074219 997.363281 137.011719 C 1015.410156 156.273438 1023.417969 181.386719 1031.152344 205.667969 C 1032.722656 210.597656 1034.3125 215.566406 1035.996094 220.527344 L 1035.996094 213.933594 C 1035.023438 210.960938 1034.066406 207.992188 1033.128906 205.039062 C 1025.320312 180.539062 1017.242188 155.203125 998.875 135.59375 " fill-opacity="1" fill-rule="nonzero"/></g><g clip-path="url(#39ea243e00)"><path fill="#1d1d1b" d="M 918.773438 445.839844 C 904.1875 445.386719 888.890625 445.566406 876.273438 453.132812 C 860.628906 462.515625 859.527344 475.441406 858.363281 489.136719 C 857.859375 494.980469 857.351562 501.023438 855.667969 507.007812 C 850.730469 524.503906 835.585938 543.410156 817.09375 555.164062 C 780.113281 578.644531 731.613281 574.425781 698.566406 562.648438 C 695.136719 561.429688 691.6875 560.164062 688.238281 558.902344 C 664.527344 550.203125 639.992188 541.210938 614.75 543.484375 C 595.46875 545.222656 577.519531 553.457031 560.15625 561.410156 C 552.71875 564.820312 545.03125 568.347656 537.339844 571.300781 C 483.808594 591.925781 406.214844 600.472656 362.332031 570.476562 C 337.191406 553.285156 315.75 542.3125 286.636719 540.691406 C 266.605469 539.566406 248.703125 545.726562 237.519531 557.582031 C 225.125 570.726562 218.886719 587.539062 219.460938 606.203125 C 220.199219 630.214844 232.039062 655.226562 251.132812 673.121094 C 264.792969 685.925781 279.453125 689.582031 294.96875 693.445312 C 300.875 694.917969 306.984375 696.4375 313.308594 698.511719 C 330.238281 704.070312 347.339844 710.09375 363.875 715.921875 C 375.53125 720.023438 387.589844 724.273438 399.496094 728.320312 C 414.550781 733.445312 431.742188 740.898438 447.550781 749.664062 L 451.75 749.664062 C 434.964844 740.039062 416.332031 731.867188 400.160156 726.363281 C 388.269531 722.316406 376.21875 718.074219 364.566406 713.960938 C 348.019531 708.132812 330.910156 702.105469 313.953125 696.542969 C 307.5625 694.449219 301.410156 692.910156 295.46875 691.429688 C 279.554688 687.472656 265.8125 684.046875 252.546875 671.609375 C 233.851562 654.085938 222.253906 629.609375 221.53125 606.136719 C 220.972656 588.03125 227.019531 571.738281 239.023438 559.007812 C 248.945312 548.484375 264.4375 542.632812 282.015625 542.632812 C 283.507812 542.632812 285.011719 542.675781 286.523438 542.753906 C 315.160156 544.351562 336.308594 555.195312 361.164062 572.191406 C 405.664062 602.601562 484.066406 594.054688 538.085938 573.246094 C 545.832031 570.257812 553.554688 566.714844 561.023438 563.289062 C 578.222656 555.40625 596.011719 547.257812 614.933594 545.546875 C 639.71875 543.3125 664.023438 552.234375 687.527344 560.84375 C 690.984375 562.109375 694.433594 563.378906 697.871094 564.601562 C 731.378906 576.539062 780.589844 580.789062 818.199219 556.910156 C 837.109375 544.902344 852.589844 525.53125 857.65625 507.5625 C 859.398438 501.398438 859.914062 495.253906 860.425781 489.304688 C 861.589844 475.59375 862.601562 463.753906 877.339844 454.90625 C 889.472656 447.628906 904.429688 447.460938 918.707031 447.914062 C 934.402344 448.40625 949.835938 449.25 964.601562 450.429688 C 988.007812 452.300781 1012.183594 455.183594 1035.996094 459.457031 L 1035.996094 457.359375 C 1012.230469 453.101562 988.121094 450.230469 964.769531 448.367188 C 949.972656 447.183594 934.5 446.335938 918.773438 445.839844 " fill-opacity="1" fill-rule="nonzero"/></g><g clip-path="url(#3ec186a54e)"><path fill="#1d1d1b" d="M 901.28125 604.972656 C 875.421875 622.769531 848.671875 641.175781 818.320312 649.804688 C 799.066406 655.265625 785.164062 655.605469 765.195312 651.074219 L 702.710938 636.910156 C 660.480469 627.335938 616.835938 617.453125 572.597656 618.753906 C 548.703125 619.476562 491.449219 624.484375 475.722656 655.316406 C 465.824219 674.722656 472.671875 698.390625 491.3125 709.1875 C 506.535156 718 521.738281 727.519531 536.433594 736.714844 C 543.371094 741.058594 550.308594 745.382812 557.257812 749.664062 L 561.523438 749.664062 C 561.03125 749.363281 560.539062 749.054688 560.058594 748.765625 C 552.566406 744.160156 545.09375 739.488281 537.632812 734.8125 C 522.910156 725.601562 507.695312 716.074219 492.4375 707.234375 C 474.824219 697.046875 468.367188 674.683594 477.722656 656.335938 C 492.898438 626.574219 549.175781 621.710938 572.660156 620.996094 C 616.617188 619.679688 660.121094 629.550781 702.21875 639.09375 L 764.691406 653.265625 C 785.082031 657.890625 799.269531 657.546875 818.9375 651.957031 C 849.636719 643.230469 876.539062 624.722656 902.5625 606.824219 C 908.949219 602.421875 915.558594 597.875 922.101562 593.558594 C 953.503906 572.847656 995.535156 551.554688 1035.996094 551.109375 L 1035.996094 548.867188 C 994.992188 549.320312 952.554688 570.785156 920.871094 591.691406 C 914.304688 596.019531 907.683594 600.570312 901.28125 604.972656 " fill-opacity="1" fill-rule="nonzero"/></g><g clip-path="url(#aee566d1a7)"><path fill="#1d1d1b" d="M 969.59375 506.675781 C 939.597656 517.050781 913.164062 536.289062 887.605469 554.886719 C 857.890625 576.515625 827.160156 598.871094 791.167969 606.769531 C 757.117188 614.238281 721.8125 607.992188 687.664062 601.953125 C 661.699219 597.355469 634.847656 592.621094 608.363281 593.738281 C 576.886719 595.082031 546.210938 604.714844 516.554688 614.019531 C 508.148438 616.660156 499.460938 619.386719 490.898438 621.878906 C 442.644531 635.929688 405.625 637.339844 370.886719 626.460938 C 358.355469 622.542969 346.628906 615.535156 335.289062 608.742188 C 318.792969 598.886719 301.742188 588.6875 281.515625 587.34375 C 272.160156 586.710938 264.382812 590.523438 259.574219 598.042969 C 252.855469 608.558594 252.953125 624.65625 259.808594 637.183594 C 267.441406 651.148438 282.589844 661.984375 302.476562 667.691406 C 314.546875 671.15625 327.210938 672.636719 339.449219 674.066406 C 344.550781 674.667969 349.808594 675.28125 354.957031 676.035156 C 411.425781 684.28125 464.101562 710.222656 505.046875 749.664062 L 508 749.664062 C 466.527344 709.089844 412.859375 682.398438 355.257812 673.988281 C 350.085938 673.226562 344.800781 672.609375 339.691406 672.011719 C 327.535156 670.585938 314.957031 669.113281 303.050781 665.699219 C 283.699219 660.140625 268.984375 649.664062 261.621094 636.191406 C 255.121094 624.292969 254.992188 609.066406 261.320312 599.160156 C 264.421875 594.3125 270.402344 588.695312 281.378906 589.40625 C 301.101562 590.71875 317.9375 600.789062 334.222656 610.523438 C 345.664062 617.371094 357.507812 624.445312 370.261719 628.445312 C 405.421875 639.441406 442.808594 638.035156 491.472656 623.871094 C 500.0625 621.371094 508.761719 618.640625 517.171875 615.996094 C 546.707031 606.726562 577.242188 597.144531 608.453125 595.808594 C 634.707031 594.675781 661.449219 599.410156 687.308594 603.992188 C 721.652344 610.070312 757.15625 616.351562 791.613281 608.792969 C 828.035156 600.796875 858.9375 578.3125 888.828125 556.5625 C 914.257812 538.054688 940.5625 518.910156 970.265625 508.632812 C 991.246094 501.371094 1013.859375 499.089844 1035.996094 501.355469 L 1035.996094 499.277344 C 1013.625 497.019531 990.78125 499.339844 969.59375 506.675781 " fill-opacity="1" fill-rule="nonzero"/></g><g clip-path="url(#52cd5c1941)"><path fill="#1d1d1b" d="M 0 457.359375 L 0 459.457031 C 105.726562 478.433594 204.398438 524.972656 197.542969 633.285156 C 194.566406 680.375 171.871094 716.21875 143.695312 749.664062 L 146.398438 749.664062 C 174.289062 716.324219 196.636719 680.46875 199.613281 633.414062 C 206.566406 523.5 106.757812 476.453125 0 457.359375 " fill-opacity="1" fill-rule="nonzero"/></g><g clip-path="url(#ab4d407ab6)"><path fill="#1d1d1b" d="M 104.804688 637.769531 C 98.914062 601.507812 73.054688 569.3125 38.914062 555.746094 C 26.371094 550.761719 13.257812 548.722656 0 548.867188 L 0 551.109375 C 12.992188 550.960938 25.828125 552.953125 38.089844 557.828125 C 71.507812 571.109375 96.824219 602.625 102.585938 638.125 C 108.542969 674.820312 93.804688 713.46875 65.914062 734.300781 C 58.648438 739.730469 51.226562 744.839844 43.683594 749.664062 L 47.746094 749.664062 C 54.390625 745.347656 60.914062 740.839844 67.257812 736.105469 C 95.796875 714.78125 110.882812 675.257812 104.804688 637.769531 " fill-opacity="1" fill-rule="nonzero"/></g><g clip-path="url(#697de7810a)"><path fill="#1d1d1b" d="M 87.839844 536.894531 C 63.972656 515.527344 32.496094 502.5625 0 499.277344 L 0 501.355469 C 31.996094 504.625 62.96875 517.40625 86.457031 538.441406 C 127.363281 575.058594 144.746094 634.523438 129.734375 686.410156 C 123.082031 709.390625 110.398438 730.878906 92.867188 749.664062 L 95.683594 749.664062 C 112.761719 730.976562 125.144531 709.703125 131.726562 686.984375 C 146.957031 634.34375 129.320312 574.03125 87.839844 536.894531 " fill-opacity="1" fill-rule="nonzero"/></g><path fill="#1d1d1b" d="M 199.679688 502.539062 C 213.550781 511.480469 235.542969 525.644531 255.300781 525.644531 C 258.261719 525.644531 261.183594 525.320312 264.007812 524.617188 C 273.808594 522.179688 281.910156 515.351562 288.085938 504.320312 C 295.734375 490.664062 297.199219 472.859375 292.207031 454.195312 C 287.773438 437.609375 279.183594 422.546875 270.878906 407.988281 C 266.136719 399.675781 261.554688 390.820312 257.128906 382.257812 C 236.789062 342.929688 215.753906 302.257812 169.140625 290.839844 C 156.328125 287.699219 142.660156 287.101562 129.433594 286.515625 C 107.476562 285.554688 86.722656 284.640625 69.242188 273.171875 C 49.226562 260.035156 40.175781 236.449219 36.113281 218.96875 C 33.296875 206.835938 31.863281 194.214844 30.480469 182.011719 C 29.429688 172.742188 28.34375 163.167969 26.652344 153.835938 C 21.992188 128.042969 12.34375 106.125 0 85.867188 L 0 89.960938 C 11.363281 109.207031 20.242188 129.984375 24.613281 154.203125 C 26.289062 163.46875 27.371094 173.011719 28.417969 182.246094 C 29.808594 194.507812 31.25 207.191406 34.097656 219.4375 C 38.242188 237.28125 47.511719 261.394531 68.109375 274.902344 C 86.070312 286.6875 108.066406 287.648438 129.34375 288.589844 C 142.464844 289.164062 156.039062 289.761719 168.648438 292.855469 C 214.34375 304.046875 235.164062 344.289062 255.292969 383.210938 C 259.726562 391.792969 264.316406 400.664062 269.074219 409.015625 C 277.324219 423.453125 285.84375 438.394531 290.207031 454.730469 C 295.054688 472.875 293.664062 490.121094 286.28125 503.308594 C 280.398438 513.820312 272.734375 520.3125 263.515625 522.609375 C 242.699219 527.789062 216.472656 510.898438 200.804688 500.804688 C 151.910156 469.3125 100.28125 451.304688 56.226562 437.835938 C 37.960938 432.261719 18.972656 428.457031 0 425.285156 L 0 427.386719 C 18.785156 430.527344 37.570312 434.308594 55.621094 439.820312 C 99.535156 453.238281 150.996094 471.191406 199.679688 502.539062 " fill-opacity="1" fill-rule="nonzero"/><path fill="#1d1d1b" d="M 30.519531 380.476562 C 71.167969 383.738281 117.429688 390.730469 152.414062 417.8125 C 156.554688 421.027344 160.59375 424.554688 164.496094 427.980469 C 172.007812 434.566406 179.785156 441.375 188.746094 446.222656 C 195.664062 449.960938 204.125 452.429688 212.378906 452.429688 C 219.921875 452.429688 227.304688 450.367188 233.179688 445.324219 C 249.519531 431.3125 244.382812 403.859375 229.957031 385.40625 C 204.445312 352.765625 163.476562 338.609375 123.851562 324.921875 L 122.796875 324.550781 C 82.96875 310.789062 42.226562 294.464844 20.039062 259.921875 C 10.984375 245.8125 5.179688 229.835938 0 213.941406 L 0 220.527344 C 4.75 234.5625 10.246094 248.5 18.300781 261.046875 C 40.839844 296.140625 81.949219 312.628906 122.117188 326.507812 L 123.171875 326.871094 C 162.511719 340.46875 203.191406 354.519531 228.332031 386.683594 C 242.148438 404.371094 247.230469 430.542969 231.828125 443.753906 C 220.269531 453.667969 202.359375 451.214844 189.734375 444.402344 C 180.976562 439.667969 173.285156 432.933594 165.855469 426.417969 C 161.9375 422.976562 157.875 419.425781 153.683594 416.179688 C 118.273438 388.757812 71.636719 381.699219 30.683594 378.414062 C 23.253906 377.8125 15.652344 377.296875 8.3125 376.800781 C 5.542969 376.609375 2.777344 376.421875 0 376.226562 L 0 378.308594 C 2.726562 378.492188 5.457031 378.679688 8.167969 378.867188 C 15.507812 379.359375 23.097656 379.878906 30.519531 380.476562 " fill-opacity="1" fill-rule="nonzero"/><path fill="#1d1d1b" d="M 13.628906 350.433594 C 24.582031 351.808594 35.644531 354.328125 45.015625 356.609375 C 56.46875 359.394531 67.558594 359.667969 79.300781 359.96875 L 82.984375 360.066406 C 83.664062 360.082031 84.359375 360.089844 85.046875 360.089844 C 89.605469 360.089844 94.363281 359.53125 97.488281 356.210938 C 99.789062 353.785156 100.75 351.046875 100.328125 348.109375 C 99.640625 343.15625 95.140625 338.875 91.167969 336.527344 C 87.378906 334.285156 83.15625 332.925781 79.066406 331.617188 C 77.941406 331.25 76.816406 330.886719 75.691406 330.507812 C 55.480469 323.617188 37.441406 309.542969 19.992188 295.929688 C 17.296875 293.832031 14.632812 291.746094 11.988281 289.722656 C 7.859375 286.558594 3.894531 283.328125 0 280.066406 L 0 282.777344 C 3.496094 285.675781 7.050781 288.539062 10.730469 291.367188 C 13.363281 293.390625 16.027344 295.46875 18.710938 297.566406 C 36.300781 311.285156 54.480469 325.464844 75.027344 332.464844 C 76.160156 332.855469 77.292969 333.21875 78.4375 333.582031 C 82.410156 334.867188 86.523438 336.1875 90.117188 338.308594 C 93.675781 340.414062 97.691406 344.175781 98.28125 348.402344 C 98.605469 350.683594 97.828125 352.835938 95.984375 354.796875 C 92.964844 357.992188 87.9375 358.128906 83.050781 357.992188 L 79.351562 357.894531 C 67.71875 357.605469 56.746094 357.328125 45.503906 354.59375 C 36.074219 352.292969 24.9375 349.761719 13.863281 348.378906 L 9.710938 347.957031 C 6.484375 347.632812 3.246094 347.300781 0 346.960938 L 0 349.039062 C 3.171875 349.382812 6.34375 349.695312 9.503906 350.019531 L 13.628906 350.433594 " fill-opacity="1" fill-rule="nonzero"/><g clip-path="url(#159570ccbf)"><path fill="#1d1d1b" d="M 4.945312 19.277344 C 11.742188 35.578125 18.777344 52.4375 34.898438 58.257812 C 38.167969 59.433594 41.675781 60 45.285156 60 C 54.707031 60 64.824219 56.121094 73.078125 48.976562 C 83.488281 39.964844 90.074219 27.679688 95.925781 15.863281 C 115.949219 -24.566406 131.425781 -67.316406 141.914062 -111.199219 C 145.550781 -126.433594 149.101562 -144.085938 145.144531 -160.871094 C 141.617188 -175.828125 129.53125 -192.808594 111.34375 -194.742188 C 93.320312 -196.660156 78.90625 -183.921875 64.960938 -171.601562 C 61.714844 -168.730469 58.347656 -165.757812 55.054688 -163.089844 C 37.5625 -148.925781 18.503906 -139.882812 0 -136.726562 L 0 -134.621094 C 18.972656 -137.789062 38.476562 -147.007812 56.355469 -161.476562 C 59.691406 -164.179688 63.066406 -167.160156 66.335938 -170.050781 C 79.941406 -182.074219 94 -194.5 111.125 -192.679688 C 128.308594 -190.859375 139.761719 -174.664062 143.128906 -160.394531 C 146.980469 -144.050781 143.484375 -126.683594 139.898438 -111.683594 C 129.441406 -67.945312 114.023438 -25.347656 94.074219 14.941406 C 88.308594 26.570312 81.84375 38.65625 71.71875 47.414062 C 60.863281 56.808594 46.683594 60.296875 35.605469 56.308594 C 20.339844 50.804688 13.484375 34.375 6.855469 18.484375 C 5.769531 15.878906 4.695312 13.296875 3.59375 10.796875 C 2.476562 8.253906 1.261719 5.769531 0 3.300781 L 0 7.996094 C 0.574219 9.203125 1.15625 10.410156 1.691406 11.628906 C 2.792969 14.125 3.859375 16.6875 4.945312 19.277344 " fill-opacity="1" fill-rule="nonzero"/></g><g clip-path="url(#318a486cfd)"><path fill="#1d1d1b" d="M 25.132812 -16.65625 C 25.730469 -15.476562 26.3125 -14.285156 26.886719 -13.085938 C 28.925781 -8.886719 31.039062 -4.546875 33.976562 -0.769531 C 38.300781 4.773438 44.03125 7.964844 50.554688 8.449219 C 51.105469 8.488281 51.664062 8.515625 52.21875 8.515625 C 58.960938 8.515625 65.914062 5.527344 71.53125 0.179688 C 80.433594 -8.296875 84.660156 -20.386719 88.398438 -31.0625 C 90.316406 -36.542969 92.164062 -42.191406 93.953125 -47.664062 C 97.546875 -58.632812 101.253906 -69.96875 105.734375 -80.636719 C 111.804688 -95.070312 116.296875 -107.316406 114.371094 -122.472656 C 113.472656 -129.515625 110.851562 -138.9375 103.429688 -143.785156 C 102.523438 -144.375 101.550781 -144.894531 100.539062 -145.316406 C 91.363281 -149.144531 80.144531 -145.71875 73.871094 -137.164062 C 68.632812 -130.015625 62.289062 -124.894531 52.65625 -120.023438 C 36.226562 -111.710938 17.78125 -108.300781 0 -110.1875 L 0 -108.101562 C 18.105469 -106.230469 36.875 -109.71875 53.589844 -118.167969 C 63.535156 -123.203125 70.097656 -128.519531 75.546875 -135.933594 C 81.261719 -143.726562 91.433594 -146.867188 99.738281 -143.40625 C 100.636719 -143.03125 101.496094 -142.578125 102.296875 -142.050781 C 109.054688 -137.632812 111.472656 -128.820312 112.316406 -122.207031 C 114.179688 -107.566406 109.773438 -95.578125 103.824219 -81.4375 C 99.308594 -70.699219 95.585938 -59.3125 91.984375 -48.304688 C 90.195312 -42.847656 88.351562 -37.207031 86.441406 -31.742188 C 82.789062 -21.292969 78.648438 -9.453125 70.097656 -1.320312 C 64.449219 4.070312 57.375 6.878906 50.707031 6.386719 C 44.78125 5.941406 39.5625 3.027344 35.613281 -2.046875 C 32.804688 -5.648438 30.746094 -9.890625 28.75 -13.992188 C 28.167969 -15.199219 27.582031 -16.40625 26.976562 -17.597656 C 20.445312 -30.496094 11.152344 -42.347656 0 -52.238281 L 0 -49.453125 C 10.34375 -39.992188 18.980469 -28.796875 25.132812 -16.65625 " fill-opacity="1" fill-rule="nonzero"/></g><g clip-path="url(#c29a87589a)"><path fill="#1d1d1b" d="M 111.710938 59.300781 C 102.621094 68.730469 93.222656 78.476562 84.796875 88.667969 C 59.8125 118.871094 40.21875 164.117188 60.144531 200.53125 C 77.328125 231.949219 116.507812 243.070312 151.886719 251.019531 C 186.792969 258.867188 225.425781 269.820312 242.097656 300.714844 C 246.339844 308.582031 248.875 317.410156 251.316406 325.941406 C 253.453125 333.394531 255.664062 341.109375 259.015625 348.257812 C 265.855469 362.792969 277.996094 372.074219 290.710938 372.472656 C 291 372.480469 291.300781 372.488281 291.59375 372.488281 C 302.589844 372.488281 312.222656 365.949219 318.785156 353.996094 C 326.726562 339.515625 330.8125 322.167969 334.765625 305.398438 C 336.675781 297.304688 338.480469 289.65625 340.6875 282.292969 C 356.125 230.855469 379.191406 184.335938 407.40625 147.765625 C 435.507812 111.34375 461.867188 94.324219 498.402344 89.03125 C 535.957031 83.589844 575.324219 91.46875 606.414062 110.65625 C 613.679688 115.148438 620.714844 120.3125 627.511719 125.296875 C 636.738281 132.074219 646.28125 139.074219 656.59375 144.539062 C 677.914062 155.828125 699.402344 157.671875 715.566406 149.597656 C 735.128906 139.828125 746.054688 115.222656 741.5625 91.09375 C 737.773438 70.753906 724.160156 51.476562 703.230469 36.800781 C 693.726562 30.140625 682.851562 25.8125 672.335938 21.625 C 662.476562 17.699219 652.289062 13.644531 643.59375 7.738281 C 631.121094 -0.746094 619.265625 -13.046875 607.796875 -24.953125 C 603.734375 -29.160156 599.898438 -33.144531 596.078125 -36.914062 C 559.308594 -73.199219 534.460938 -106.261719 517.882812 -140.960938 C 514.664062 -147.703125 511.660156 -154.734375 508.746094 -161.542969 C 501.277344 -179.023438 493.539062 -197.097656 481.414062 -212.121094 C 462.34375 -235.714844 433.863281 -250 408.738281 -262.601562 L 361.410156 -286.332031 L 356.785156 -286.332031 L 407.808594 -260.746094 C 432.746094 -248.242188 461.015625 -234.0625 479.792969 -210.816406 C 491.75 -196.023438 499.421875 -178.078125 506.84375 -160.726562 C 509.757812 -153.902344 512.777344 -146.84375 516.015625 -140.0625 C 532.703125 -105.144531 557.679688 -71.894531 594.621094 -35.441406 C 598.425781 -31.6875 602.253906 -27.714844 606.300781 -23.511719 C 617.839844 -11.535156 629.78125 0.851562 642.429688 9.445312 C 651.316406 15.484375 661.613281 19.585938 671.566406 23.550781 C 681.976562 27.6875 692.742188 31.976562 702.039062 38.5 C 722.523438 52.859375 735.839844 71.667969 739.523438 91.476562 C 743.789062 114.339844 733.085938 138.523438 714.640625 147.742188 C 699.078125 155.511719 678.277344 153.675781 657.566406 142.707031 C 647.390625 137.316406 637.90625 130.355469 628.734375 123.632812 C 621.902344 118.613281 614.839844 113.433594 607.496094 108.902344 C 576.003906 89.453125 536.136719 81.464844 498.101562 86.984375 C 460.976562 92.355469 434.226562 109.605469 405.761719 146.503906 C 377.394531 183.273438 354.203125 230.023438 338.707031 281.691406 C 336.480469 289.125 334.585938 297.152344 332.75 304.921875 C 328.832031 321.5625 324.777344 338.761719 316.964844 353.007812 C 310.628906 364.546875 301.328125 370.714844 290.773438 370.398438 C 278.84375 370.027344 267.390625 361.207031 260.890625 347.375 C 257.605469 340.378906 255.421875 332.75 253.308594 325.375 C 250.832031 316.730469 248.273438 307.796875 243.921875 299.734375 C 226.835938 268.070312 187.691406 256.941406 152.347656 248.996094 C 117.40625 241.144531 78.734375 230.199219 61.957031 199.535156 C 42.539062 164.035156 61.84375 119.664062 86.390625 89.992188 C 94.769531 79.859375 104.140625 70.140625 113.199219 60.742188 C 131.804688 41.449219 151.042969 21.488281 162.683594 -3.058594 C 180.871094 -41.414062 178.351562 -86.835938 174.574219 -126.390625 L 173.738281 -134.90625 C 169.984375 -173.359375 166.097656 -213.117188 177.398438 -250.015625 C 181.265625 -262.671875 187.652344 -275.25 195.988281 -286.332031 L 193.414062 -286.332031 C 185.378906 -275.355469 179.210938 -263.03125 175.414062 -250.621094 C 163.996094 -213.324219 167.902344 -173.359375 171.683594 -134.703125 L 172.507812 -126.195312 C 176.265625 -86.910156 178.773438 -41.828125 160.8125 -3.949219 C 149.320312 20.300781 130.195312 40.128906 111.710938 59.300781 " fill-opacity="1" fill-rule="nonzero"/></g></g></g></g></g></svg>