<svg xmlns="http://www.w3.org/2000/svg" xmlns:xlink="http://www.w3.org/1999/xlink" width="1920" zoomAndPan="magnify" viewBox="0 0 1440 809.999993" height="1080" preserveAspectRatio="xMidYMid meet" version="1.0"><defs><clipPath id="6cc527b04c"><path d="M 337.089844 0 L 1102.910156 0 L 1102.910156 806 L 337.089844 806 Z M 337.089844 0 " clip-rule="nonzero"/></clipPath><clipPath id="b0012bc8db"><path d="M 720 0 L 749.453125 310.746094 L 957.109375 76.582031 L 798.054688 346.089844 L 1102.910156 278.34375 L 815.726562 402.054688 L 1102.910156 527.238281 L 798.054688 459.492188 L 957.109375 729 L 749.453125 493.363281 L 720 805.582031 L 690.546875 493.363281 L 482.890625 729 L 641.945312 459.492188 L 337.089844 527.238281 L 624.273438 402.054688 L 337.089844 278.34375 L 641.945312 346.089844 L 482.890625 76.582031 L 690.546875 310.746094 Z M 720 0 " clip-rule="nonzero"/></clipPath><clipPath id="c51fc565eb"><path d="M 0.0898438 0 L 765.910156 0 L 765.910156 805.679688 L 0.0898438 805.679688 Z M 0.0898438 0 " clip-rule="nonzero"/></clipPath><clipPath id="41a427f20e"><path d="M 383 0 L 412.453125 310.746094 L 620.109375 76.582031 L 461.054688 346.089844 L 765.910156 278.34375 L 478.726562 402.054688 L 765.910156 527.238281 L 461.054688 459.492188 L 620.109375 729 L 412.453125 493.363281 L 383 805.582031 L 353.546875 493.363281 L 145.890625 729 L 304.945312 459.492188 L 0.0898438 527.238281 L 287.273438 402.054688 L 0.0898438 278.34375 L 304.945312 346.089844 L 145.890625 76.582031 L 353.546875 310.746094 Z M 383 0 " clip-rule="nonzero"/></clipPath><clipPath id="8dd9338ab3"><rect x="0" width="766" y="0" height="806"/></clipPath></defs><g clip-path="url(#6cc527b04c)"><g clip-path="url(#b0012bc8db)"><g transform="matrix(1, 0, 0, 1, 337, 0.000000000000039746)"><g clip-path="url(#8dd9338ab3)"><g clip-path="url(#c51fc565eb)"><g clip-path="url(#41a427f20e)"><path fill="#fc03a8" d="M 0.0898438 0 L 765.910156 0 L 765.910156 810.691406 L 0.0898438 810.691406 Z M 0.0898438 0 " fill-opacity="1" fill-rule="nonzero"/></g></g></g></g></g></g></svg>