<svg xmlns="http://www.w3.org/2000/svg" xmlns:xlink="http://www.w3.org/1999/xlink" width="1920" zoomAndPan="magnify" viewBox="0 0 1440 809.999993" height="1080" preserveAspectRatio="xMidYMid meet" version="1.0"><defs><filter x="0%" y="0%" width="100%" height="100%" id="de4fad44df"><feColorMatrix values="0 0 0 0 1 0 0 0 0 1 0 0 0 0 1 0 0 0 1 0" color-interpolation-filters="sRGB"/></filter><mask id="7856313a4d"><g filter="url(#de4fad44df)"><rect x="-144" width="1728" fill="#000000" y="-80.999999" height="971.999992" fill-opacity="0.04"/></g></mask><clipPath id="8b8b039226"><path d="M 0 0 L 1440 0 L 1440 810 L 0 810 Z M 0 0 " clip-rule="nonzero"/></clipPath><clipPath id="7438bc171b"><rect x="0" width="1440" y="0" height="810"/></clipPath></defs><g mask="url(#7856313a4d)"><g transform="matrix(1, 0, 0, 1, 0, 0.000000000000039746)"><g clip-path="url(#7438bc171b)"><g clip-path="url(#8b8b039226)"><rect x="-316.8" width="2073.6" fill="#ffffff" height="1166.39999" y="-178.199998" fill-opacity="1"/></g><path fill="#000000" d="M 1440 422.875 L 1440 474.707031 C 1437.214844 474.148438 1434.4375 473.59375 1431.65625 473.03125 C 1402.808594 467.324219 1374.875 457.878906 1347.671875 446.824219 C 1314.90625 433.625 1282.9375 418.53125 1250.972656 403.523438 C 1213.984375 386.472656 1177.246094 366.203125 1136.425781 360.382812 C 1096.496094 355.085938 1059.257812 363.796875 1044.601562 405.304688 C 1037.160156 425.945312 1033.527344 447.71875 1026.742188 468.570312 C 1018.140625 495.261719 1009.285156 517.429688 1014.660156 546.121094 C 1018.621094 570.320312 1031.789062 588.628906 1045.070312 608.453125 C 1052.863281 620.078125 1059.546875 632.417969 1065.105469 645.261719 C 1080.957031 681.660156 1088.457031 721.308594 1090.660156 760.820312 C 1091.5 777.179688 1091.570312 793.617188 1090.703125 810 L 1038.617188 810 C 1041.894531 786.554688 1043.402344 762.847656 1043.070312 739.167969 C 1042.265625 709.5625 1038.34375 679.703125 1028.519531 651.746094 C 1021.042969 631.292969 1009.617188 612.601562 995.898438 595.957031 C 984.066406 580.757812 970.179688 567.085938 960.277344 550.402344 C 952.355469 537.09375 951.835938 520.386719 956.605469 505.808594 C 958.9375 499 962.488281 492.730469 965.910156 486.460938 C 971.433594 476.554688 976.984375 466.644531 981.539062 456.222656 C 984.660156 449.085938 987.414062 441.773438 989.570312 434.265625 C 992.125 424.910156 994.058594 415.386719 996.789062 406.082031 C 1007.839844 366.652344 1036.386719 328.867188 1077.050781 320.089844 C 1112.957031 313.011719 1150.691406 328.761719 1183.679688 342.097656 C 1216.6875 355.980469 1249.253906 370.972656 1282.695312 383.761719 C 1330.609375 401.835938 1380.109375 416.476562 1430.996094 422.054688 C 1433.996094 422.332031 1437 422.605469 1440 422.875 Z M 1440 422.875 " fill-opacity="1" fill-rule="nonzero"/><path fill="#000000" d="M 925.269531 0 L 980.945312 0 C 964.53125 32.097656 949.894531 65.335938 941.550781 100.511719 C 932.183594 140.046875 935.476562 182.152344 948.78125 220.410156 C 952.789062 232.066406 958.433594 243.070312 962.679688 254.632812 C 969.003906 272.058594 972.164062 290.691406 970.519531 309.222656 C 968.523438 336.324219 958.003906 361.722656 949.726562 387.359375 C 945.152344 401.0625 940.949219 414.886719 936.570312 428.65625 C 933.929688 436.816406 931.28125 445.011719 927.5 452.734375 C 922.785156 462.605469 915.367188 472.324219 904.496094 475.609375 C 899.019531 476.917969 892.96875 475.5625 887.957031 473.046875 C 879.605469 468.433594 874.117188 460.015625 868.859375 452.289062 C 854.183594 428.449219 849.050781 400.398438 839.007812 374.554688 C 830.816406 352.871094 819.976562 331.90625 805.324219 313.859375 C 792.46875 298.316406 776.488281 285.566406 759.574219 274.695312 C 741.277344 262.960938 720.28125 255.804688 698.429688 255.792969 C 683.871094 255.691406 669.453125 258.4375 655.503906 262.472656 C 634.65625 268.339844 615.015625 277.746094 596.363281 288.652344 C 583.585938 295.835938 571.34375 303.914062 558.636719 311.210938 C 541.539062 320.332031 522.007812 329.011719 509.089844 308.75 C 499.585938 293.507812 498.4375 274.96875 495.066406 257.726562 C 490.113281 229.023438 483.992188 200.460938 474.601562 172.851562 C 468.507812 154.933594 461.527344 137.324219 453.984375 119.972656 C 446.59375 102.863281 438.03125 86.292969 430.730469 69.148438 C 421.558594 47.304688 417.214844 23.632812 417.667969 0 L 463.96875 0 C 463.929688 13.636719 465.851562 27.324219 469.644531 40.773438 C 475.96875 64.625 486.800781 86.941406 495.082031 110.128906 C 504.414062 135.421875 511.273438 161.515625 516.441406 187.976562 C 519.957031 204.851562 522.941406 221.929688 528.339844 238.332031 C 532.304688 249.53125 536.292969 258.917969 548.253906 263.167969 C 568 270.992188 592.941406 248.761719 609.929688 239.761719 C 618.882812 234.570312 627.964844 229.566406 637.53125 225.585938 C 646.210938 222.089844 655.242188 219.511719 664.390625 217.5625 C 690.023438 212.6875 716.90625 211.371094 742.421875 217.566406 C 776.910156 225.839844 807.515625 247.5625 828.574219 275.890625 C 840.496094 291.75 848.003906 310.261719 853.710938 329.136719 C 858.777344 343.851562 869.515625 389.28125 887.035156 390.558594 C 906.25 390.71875 912.734375 361.707031 915.597656 346.582031 C 918.320312 331.332031 921.027344 316.027344 921.925781 300.542969 C 923.394531 277.222656 921.972656 253.644531 916.65625 230.855469 C 912.054688 211.1875 905.402344 192.144531 901.226562 172.351562 C 896.464844 149.855469 893.78125 126.742188 895.558594 103.753906 C 898.464844 67.523438 909.871094 32.847656 925.269531 0 Z M 925.269531 0 " fill-opacity="1" fill-rule="nonzero"/><path fill="#000000" d="M 1440 526.039062 L 1440 574.738281 C 1403.097656 565.984375 1366.855469 554.339844 1332.179688 538.925781 C 1301.921875 525.390625 1272.472656 510.144531 1243.066406 494.859375 C 1215.304688 480.867188 1175.636719 455.355469 1143.882812 464.824219 C 1132.105469 468.40625 1124.078125 475.851562 1118.78125 486.839844 C 1113.621094 496.753906 1112.332031 508.121094 1113.289062 519.144531 C 1114.117188 530.628906 1116.796875 541.90625 1120.523438 552.777344 C 1126.445312 570.617188 1134.160156 587.890625 1144.039062 603.894531 C 1157.257812 625.042969 1172.007812 645.453125 1181.496094 668.671875 C 1199.226562 713.652344 1207.625 761.710938 1209.101562 810 L 1151.441406 810 C 1151.59375 792.9375 1150.78125 775.878906 1148.820312 758.917969 C 1146.039062 734.75 1141.597656 710.660156 1134.449219 687.390625 C 1129.203125 671.886719 1122.316406 656.933594 1114.261719 642.6875 C 1098.234375 614.703125 1076.707031 587.769531 1072.957031 554.757812 C 1071.050781 533.433594 1075.167969 512.183594 1077.390625 491.019531 C 1079.269531 477.082031 1080.53125 462.824219 1085.816406 449.664062 C 1094.386719 428.488281 1112.109375 415.984375 1134.75 414.003906 C 1152.441406 412.929688 1169.761719 418.054688 1186.371094 423.699219 C 1219.484375 435.496094 1250.617188 452.074219 1281.90625 467.933594 C 1309.558594 482.253906 1337.851562 495.402344 1367.273438 505.6875 C 1384.539062 511.714844 1402.191406 516.503906 1419.917969 520.972656 C 1426.609375 522.648438 1433.304688 524.339844 1440 526.039062 Z M 1440 526.039062 " fill-opacity="1" fill-rule="nonzero"/><path fill="#000000" d="M 1440 633.863281 L 1440 688.527344 C 1407.800781 675.453125 1377.03125 659.054688 1347.460938 640.808594 C 1328.511719 629.429688 1309.917969 617.484375 1290.941406 606.148438 C 1282.398438 601.351562 1252.5 582.269531 1246.765625 596.539062 C 1242.980469 608.726562 1253.5625 625.792969 1260.039062 635.933594 C 1267.332031 647.183594 1274.804688 658.324219 1281.996094 669.636719 C 1294.917969 689.417969 1305.371094 710.722656 1313.171875 733.042969 C 1320.175781 752.863281 1325.101562 773.347656 1329.105469 793.96875 C 1330.125 799.292969 1331.066406 804.636719 1331.917969 810 L 1277.171875 810 C 1274.792969 787.085938 1271.171875 764.292969 1265.875 741.863281 C 1259.757812 715.632812 1250.007812 690.34375 1238.492188 666.027344 C 1227.925781 643.15625 1214.671875 621.765625 1201.539062 600.304688 C 1195.761719 590.722656 1190.179688 581.03125 1185.019531 571.101562 C 1180.453125 562.269531 1176.222656 553.128906 1174.980469 543.152344 C 1174.472656 539.1875 1174.308594 535.046875 1175.636719 531.160156 C 1177.328125 526.539062 1181.351562 522.589844 1186.550781 522.695312 C 1193.542969 522.742188 1200.320312 524.851562 1206.871094 527.136719 C 1215.058594 530.214844 1223.214844 534.046875 1231.105469 537.898438 C 1257.132812 550.78125 1282.175781 565.492188 1307.53125 579.632812 C 1324.480469 589.058594 1341.707031 598.023438 1359.449219 605.863281 C 1385.480469 617.429688 1412.484375 626.585938 1440 633.863281 Z M 1440 633.863281 " fill-opacity="1" fill-rule="nonzero"/><path fill="#000000" d="M 1391.90625 810 C 1388.175781 796.894531 1383.691406 784.003906 1378.515625 771.394531 C 1371.703125 754.960938 1362.910156 739.460938 1354.277344 723.933594 C 1350.4375 717.007812 1346.632812 710.046875 1343.457031 702.785156 C 1341.113281 696.9375 1338.050781 690.109375 1341.214844 684 C 1341.695312 683.246094 1342.0625 682.644531 1342.902344 682.074219 C 1352.289062 677.429688 1368.847656 692.003906 1376.332031 697.628906 C 1386.484375 705.765625 1396.363281 714.238281 1406.640625 722.222656 C 1417.433594 730.695312 1428.546875 738.765625 1440 746.324219 L 1440 775.53125 C 1439.949219 775.5 1439.902344 775.464844 1439.851562 775.433594 C 1438.601562 774.535156 1437.320312 773.679688 1436.09375 772.75 C 1435.210938 772.082031 1434.324219 771.414062 1433.441406 770.746094 C 1432.910156 770.34375 1432.390625 769.921875 1431.871094 769.507812 C 1430.863281 768.710938 1429.867188 767.914062 1428.878906 767.101562 C 1427.875 766.28125 1426.878906 765.457031 1425.886719 764.621094 C 1423.863281 762.917969 1421.855469 761.195312 1419.851562 759.46875 C 1416.066406 756.203125 1412.269531 752.945312 1408.488281 749.675781 C 1406.410156 747.882812 1404.335938 746.089844 1402.257812 744.296875 C 1401.410156 743.566406 1400.558594 742.832031 1399.703125 742.109375 C 1398.65625 741.226562 1397.605469 740.351562 1396.546875 739.488281 C 1395.546875 738.671875 1394.511719 737.898438 1393.480469 737.121094 C 1392.988281 736.75 1392.464844 736.410156 1391.957031 736.054688 C 1391.460938 735.710938 1390.941406 735.390625 1390.410156 735.109375 C 1390.09375 734.941406 1389.777344 734.769531 1389.449219 734.628906 C 1389.105469 734.480469 1388.742188 734.332031 1388.371094 734.246094 C 1388.003906 734.164062 1387.644531 734.113281 1387.261719 734.125 C 1387.011719 734.136719 1386.734375 734.183594 1386.507812 734.28125 C 1386.261719 734.394531 1386.019531 734.511719 1385.820312 734.703125 C 1385.628906 734.886719 1385.457031 735.132812 1385.355469 735.378906 C 1385.230469 735.683594 1385.152344 735.988281 1385.132812 736.316406 C 1385.113281 736.675781 1385.113281 737.039062 1385.167969 737.394531 C 1385.277344 738.121094 1385.472656 738.84375 1385.78125 739.515625 C 1386.105469 740.21875 1386.46875 740.898438 1386.886719 741.542969 C 1387.085938 741.855469 1387.28125 742.164062 1387.480469 742.46875 C 1387.796875 742.957031 1388.121094 743.4375 1388.460938 743.902344 C 1389.917969 745.914062 1391.40625 747.894531 1392.941406 749.84375 C 1394.597656 751.949219 1396.269531 754.035156 1397.914062 756.144531 C 1399.410156 758.054688 1400.859375 760 1402.300781 761.949219 C 1403.816406 763.996094 1405.324219 766.050781 1406.796875 768.128906 C 1409.796875 772.363281 1412.757812 776.628906 1415.566406 780.988281 C 1415.566406 780.988281 1415.5625 780.984375 1415.5625 780.980469 C 1415.570312 780.996094 1415.582031 781.011719 1415.589844 781.023438 C 1415.585938 781.019531 1415.582031 781.011719 1415.582031 781.011719 C 1415.585938 781.015625 1415.589844 781.023438 1415.59375 781.027344 C 1415.59375 781.03125 1415.597656 781.035156 1415.597656 781.035156 C 1415.597656 781.039062 1415.601562 781.039062 1415.601562 781.039062 C 1415.605469 781.050781 1415.613281 781.0625 1415.621094 781.074219 C 1415.625 781.078125 1415.625 781.082031 1415.628906 781.082031 C 1416.21875 782.015625 1416.808594 782.941406 1417.402344 783.875 C 1417.398438 783.871094 1417.398438 783.867188 1417.394531 783.863281 C 1417.402344 783.875 1417.410156 783.886719 1417.417969 783.898438 C 1417.421875 783.902344 1417.421875 783.910156 1417.425781 783.914062 C 1417.425781 783.914062 1417.425781 783.910156 1417.425781 783.910156 C 1417.433594 783.925781 1417.445312 783.941406 1417.453125 783.953125 C 1417.441406 783.941406 1417.433594 783.921875 1417.421875 783.90625 C 1417.761719 784.464844 1418.105469 785.023438 1418.445312 785.582031 C 1418.753906 786.078125 1419.066406 786.570312 1419.363281 787.074219 C 1419.726562 787.699219 1420.085938 788.324219 1420.449219 788.945312 C 1420.71875 789.410156 1421.007812 789.871094 1421.265625 790.347656 C 1421.605469 790.980469 1421.949219 791.613281 1422.296875 792.25 C 1422.554688 792.730469 1422.832031 793.207031 1423.078125 793.691406 C 1423.414062 794.359375 1423.75 795.027344 1424.085938 795.695312 C 1424.316406 796.15625 1424.5625 796.613281 1424.785156 797.078125 C 1424.78125 797.070312 1424.777344 797.0625 1424.769531 797.054688 C 1424.78125 797.074219 1424.792969 797.097656 1424.804688 797.117188 C 1424.800781 797.117188 1424.800781 797.113281 1424.800781 797.109375 C 1424.800781 797.113281 1424.804688 797.117188 1424.804688 797.121094 C 1424.804688 797.121094 1424.804688 797.121094 1424.804688 797.117188 C 1424.808594 797.128906 1424.8125 797.136719 1424.816406 797.148438 C 1424.816406 797.144531 1424.8125 797.136719 1424.808594 797.132812 C 1424.8125 797.140625 1424.816406 797.148438 1424.820312 797.160156 C 1424.824219 797.164062 1424.828125 797.167969 1424.832031 797.175781 C 1424.832031 797.183594 1424.835938 797.191406 1424.839844 797.195312 C 1424.839844 797.199219 1424.84375 797.207031 1424.84375 797.207031 C 1424.84375 797.207031 1424.839844 797.199219 1424.839844 797.195312 C 1424.863281 797.238281 1424.882812 797.28125 1424.898438 797.324219 C 1424.898438 797.320312 1424.894531 797.316406 1424.894531 797.3125 C 1424.898438 797.320312 1424.898438 797.324219 1424.902344 797.332031 C 1424.90625 797.335938 1424.90625 797.339844 1424.910156 797.347656 C 1424.910156 797.34375 1424.90625 797.34375 1424.90625 797.339844 C 1424.949219 797.429688 1424.992188 797.519531 1425.03125 797.605469 C 1425.027344 797.601562 1425.027344 797.59375 1425.023438 797.589844 C 1425.210938 797.988281 1425.398438 798.386719 1425.585938 798.789062 C 1425.582031 798.78125 1425.582031 798.777344 1425.578125 798.769531 C 1425.589844 798.796875 1425.601562 798.820312 1425.613281 798.847656 C 1425.625 798.878906 1425.640625 798.90625 1425.65625 798.9375 C 1425.894531 799.445312 1426.132812 799.957031 1426.371094 800.46875 C 1426.371094 800.46875 1426.371094 800.46875 1426.371094 800.464844 C 1426.40625 800.539062 1426.441406 800.613281 1426.472656 800.6875 C 1426.46875 800.675781 1426.460938 800.660156 1426.457031 800.652344 C 1426.460938 800.664062 1426.46875 800.675781 1426.476562 800.6875 C 1426.476562 800.6875 1426.476562 800.6875 1426.476562 800.691406 C 1426.476562 800.6875 1426.472656 800.6875 1426.472656 800.6875 C 1426.472656 800.6875 1426.476562 800.6875 1426.476562 800.691406 C 1426.914062 801.757812 1427.386719 802.8125 1427.839844 803.871094 C 1428.199219 804.707031 1428.523438 805.558594 1428.855469 806.40625 C 1429.183594 807.238281 1429.515625 808.074219 1429.820312 808.917969 C 1429.949219 809.28125 1430.082031 809.640625 1430.214844 810 Z M 1391.90625 810 " fill-opacity="1" fill-rule="nonzero"/><path fill="#000000" d="M 1440 337.988281 L 1440 381.546875 C 1429.917969 380.976562 1419.890625 379.375 1410.0625 377.023438 C 1375.457031 368.808594 1343.820312 351.546875 1313.089844 333.777344 C 1287.046875 318.976562 1260.691406 304.707031 1233.574219 292.074219 C 1211.710938 281.835938 1189.1875 272.902344 1165.738281 267.332031 C 1136.65625 259.761719 1105.851562 262.070312 1077.035156 269.8125 C 1060.035156 274.613281 1042.382812 280.75 1025.582031 271.695312 C 1001.632812 259.371094 989.441406 220.644531 986.339844 194.949219 C 983.496094 172.101562 985.265625 148.859375 988.972656 126.21875 C 993.320312 97.253906 1002.78125 69.289062 1015.179688 42.933594 C 1022.335938 27.851562 1030.9375 13.566406 1040.523438 0 L 1088.0625 0 C 1084.726562 2.855469 1081.414062 5.746094 1078.144531 8.679688 C 1054.140625 30.183594 1034.289062 56.542969 1022.546875 86.6875 C 1011.777344 113.558594 1006.046875 143.417969 1011.78125 172.136719 C 1013.851562 182.847656 1017.988281 193.027344 1022.773438 202.789062 C 1028.289062 214.421875 1036.527344 225.148438 1048.335938 230.84375 C 1062.203125 237.320312 1077.960938 238.242188 1093.058594 238.273438 C 1106.945312 237.878906 1120.5625 234.910156 1134.355469 233.535156 C 1158.011719 231.234375 1182.378906 230.773438 1205.464844 237.171875 C 1233.71875 245.222656 1259.625 259.609375 1284.53125 274.921875 C 1299.199219 283.996094 1313.761719 293.242188 1328.425781 302.328125 C 1342.171875 310.789062 1356.070312 319.191406 1370.949219 325.535156 C 1388.617188 333.023438 1407.621094 337.101562 1426.785156 337.839844 C 1431.191406 338.019531 1435.597656 338.0625 1440 337.988281 Z M 1440 337.988281 " fill-opacity="1" fill-rule="nonzero"/><path fill="#000000" d="M 1440 247.972656 L 1440 291.703125 C 1409.105469 291.0625 1378.433594 282.757812 1347.511719 264.472656 C 1323.902344 250.882812 1302.121094 234.066406 1277.992188 221.257812 C 1260.40625 211.890625 1241.523438 205.085938 1222.144531 200.53125 C 1199.035156 195.078125 1175.238281 193.371094 1151.542969 194.070312 C 1131.367188 194.117188 1111.015625 198.167969 1090.960938 194.621094 C 1077.304688 192.171875 1066.230469 183.035156 1059.941406 170.796875 C 1049.246094 150.210938 1053.238281 125.375 1061.636719 104.671875 C 1079.460938 61.617188 1124.203125 30.390625 1162.445312 6.207031 C 1165.832031 4.128906 1169.230469 2.058594 1172.628906 0 L 1243.621094 0 C 1205.5625 18.710938 1168.855469 40.464844 1136.304688 67.695312 C 1120.976562 81.300781 1106.023438 96.230469 1096.835938 114.792969 C 1083.902344 141.734375 1097.757812 159.054688 1125.554688 162.300781 C 1140.144531 163.90625 1154.757812 161.339844 1169.3125 160.410156 C 1190.054688 159.167969 1211.132812 159.769531 1231.488281 164.191406 C 1246.679688 167.425781 1261.265625 172.859375 1275.53125 178.921875 C 1286.695312 183.59375 1297.746094 188.539062 1308.578125 193.929688 C 1350.953125 214.433594 1391.851562 244.835938 1440 247.972656 Z M 1440 247.972656 " fill-opacity="1" fill-rule="nonzero"/><path fill="#000000" d="M 1440 145.289062 L 1440 194.011719 C 1421.554688 191.984375 1403.453125 186.441406 1386.328125 178.605469 C 1363.910156 168.804688 1343.425781 155.160156 1321.070312 145.253906 C 1304.871094 138.039062 1288.078125 132.097656 1270.761719 128.207031 C 1256.253906 124.78125 1241.359375 123.332031 1226.503906 122.425781 C 1211.632812 121.558594 1196.734375 121.796875 1181.851562 122.042969 C 1174.25 121.988281 1166.433594 122.679688 1159.035156 120.578125 C 1149.246094 117.390625 1147.167969 110.777344 1152.707031 102.296875 C 1161.859375 89.039062 1175.863281 79.964844 1189.15625 71.265625 C 1221.425781 50.539062 1257.324219 36.488281 1293.226562 23.414062 C 1316.460938 15.117188 1339.867188 7.273438 1363.453125 0 L 1440 0 L 1440 12.804688 C 1436.378906 13.238281 1432.761719 13.714844 1429.148438 14.242188 C 1405.359375 17.710938 1381.878906 23.011719 1358.65625 29.1875 C 1320.136719 39.667969 1281.476562 50.992188 1245.554688 68.65625 C 1239.960938 71.800781 1231.445312 75.871094 1230.460938 82.902344 C 1230.039062 90.382812 1238.257812 93.625 1244.253906 95.394531 C 1253.722656 98.121094 1263.609375 98.761719 1273.335938 100.085938 C 1286.464844 101.777344 1299.613281 103.386719 1312.691406 105.4375 C 1328.894531 107.933594 1344.910156 111.640625 1360.28125 117.414062 C 1376.316406 123.429688 1391.675781 131.125 1407.824219 136.855469 C 1418.265625 140.601562 1429.035156 143.605469 1440 145.289062 Z M 1440 145.289062 " fill-opacity="1" fill-rule="nonzero"/><path fill="#000000" d="M 1440 52.941406 L 1440 95.746094 C 1439.773438 95.738281 1439.546875 95.734375 1439.320312 95.726562 C 1425.351562 95.1875 1411.71875 91.960938 1398.167969 88.757812 C 1386.238281 86.015625 1374.214844 83.695312 1362.140625 81.679688 C 1353.429688 79.761719 1333.304688 79.058594 1328.617188 71.171875 L 1328.632812 71.148438 C 1329.171875 63.707031 1356.96875 60.394531 1363.617188 59.386719 C 1388.980469 56.164062 1414.542969 55.144531 1440 52.941406 Z M 1440 52.941406 " fill-opacity="1" fill-rule="nonzero"/><path fill="#000000" d="M 948.566406 601.097656 C 984.742188 664.09375 975.824219 741.089844 963.765625 810 L 926.144531 810 C 929.40625 794.03125 931.722656 777.875 932.191406 761.566406 C 932.476562 737.101562 931.195312 712.484375 926.390625 688.453125 C 917.582031 645.320312 902.945312 602.027344 874.832031 567.488281 C 862.339844 551.835938 845.863281 540.179688 830.957031 527.007812 C 820.140625 517.398438 809.632812 507.351562 800.558594 496.050781 C 790.375 483.285156 781.738281 469.355469 773.757812 455.132812 C 763.433594 436.882812 755.570312 417.320312 744.433594 399.484375 C 738.953125 390.75 732.566406 382.535156 724.921875 375.585938 C 714.070312 365.835938 701.472656 357.953125 687.972656 352.433594 C 668.125 344.777344 646.074219 343.984375 625.398438 348.511719 C 609.460938 351.589844 594.285156 357.980469 581.148438 367.539062 C 558.464844 383.5625 541.480469 406.785156 530.300781 432.027344 C 522.320312 450.648438 519.484375 471.078125 519.921875 491.238281 C 519.949219 509.613281 523.738281 527.644531 526.484375 545.738281 C 528.414062 559.792969 530.269531 573.898438 530.851562 588.085938 C 531.449219 600.976562 530.707031 613.910156 529.03125 626.699219 C 526.292969 647.558594 519.472656 667.667969 510.953125 686.835938 C 499.679688 711.359375 485.1875 734.207031 471.941406 757.683594 C 461.558594 775.515625 454.898438 792.210938 450.59375 810 L 404.703125 810 C 407.105469 803.15625 409.691406 796.382812 412.414062 789.683594 C 420.855469 769.394531 431 749.910156 440.546875 730.160156 C 452.832031 704.644531 464.570312 678.765625 473.777344 651.894531 C 491.59375 601.300781 499.484375 561.0625 487.253906 507.554688 C 484.363281 494.632812 480.671875 481.976562 478.796875 468.824219 C 476.953125 454.320312 477.335938 439.507812 480.039062 425.140625 C 481.765625 416.242188 485.140625 407.828125 489.035156 399.695312 C 495.609375 385.644531 506.226562 373.980469 518.683594 365.175781 C 530.292969 356.492188 543.160156 349.726562 556.335938 343.914062 C 576.894531 334.929688 597.945312 327.207031 618.941406 319.382812 C 640.84375 311.5 663.625 304.644531 687.035156 304.792969 C 728.019531 304.695312 766.503906 323.871094 784.726562 362.804688 C 788.761719 371.195312 792.214844 380.113281 795.058594 389.03125 C 798.566406 399.898438 801.109375 411.070312 804.566406 421.957031 C 811.351562 445.039062 822.867188 466.558594 838.621094 484.480469 C 857.355469 506.082031 879.582031 523.855469 900.421875 543.214844 C 918.675781 560.375 935.980469 579.074219 948.566406 601.097656 Z M 948.566406 601.097656 " fill-opacity="1" fill-rule="nonzero"/><path fill="#000000" d="M 884.617188 722.5625 C 885.523438 752.246094 880.570312 781.953125 870.859375 810 L 836.714844 810 C 842.210938 791.300781 847.1875 772.296875 849.214844 752.875 C 850.980469 736.84375 850.128906 720.628906 847.976562 704.671875 C 845.746094 689.894531 842.351562 675.246094 837.355469 661.148438 C 831.132812 644.085938 822.871094 627.734375 813.085938 612.4375 C 803.03125 597.417969 790.390625 584.339844 776.816406 572.476562 C 762.507812 560.03125 747.753906 547.898438 736.03125 532.867188 C 720.214844 513.226562 708.800781 490.53125 696.890625 468.414062 C 689.269531 454.132812 680.832031 444.632812 663.449219 445.027344 C 654.054688 444.992188 645.386719 449.625 639.027344 456.339844 C 632.898438 462.21875 628.332031 469.511719 624.910156 477.242188 C 613.785156 503.429688 609.214844 531.910156 606.257812 560.050781 C 603.683594 589.773438 605.742188 619.613281 606.667969 649.359375 C 607.117188 663.507812 607.03125 677.609375 605.507812 691.71875 C 603.34375 711.546875 599.070312 731.054688 594.347656 750.40625 C 589.578125 770.355469 583.585938 789.996094 579.042969 810 L 519.355469 810 C 527.320312 787.070312 539.257812 765.550781 548.472656 743.101562 C 556.351562 724.425781 563.175781 705.183594 567.46875 685.351562 C 570.988281 667.832031 572.082031 649.90625 572.167969 632.070312 C 572.214844 588.523438 562.820312 545.09375 567.90625 501.578125 C 570.769531 472.285156 581.582031 443.945312 600.085938 420.945312 C 609.871094 409.273438 621.402344 397.882812 636.054688 392.738281 C 647.621094 389.234375 660.675781 388.90625 672.074219 393.316406 C 690.199219 400.144531 705.644531 413.328125 715.445312 430.015625 C 724.222656 444.589844 730.089844 460.65625 738.125 475.621094 C 748.035156 494.105469 760.871094 510.945312 775.234375 526.191406 C 791.679688 543.65625 809.8125 559.484375 825.703125 577.488281 C 841.917969 596.457031 855.894531 617.550781 866.085938 640.390625 C 871.953125 653.347656 876.644531 666.835938 879.773438 680.722656 C 882.613281 694.5 884.21875 708.5 884.617188 722.5625 Z M 884.617188 722.5625 " fill-opacity="1" fill-rule="nonzero"/><path fill="#000000" d="M 798.980469 653.113281 C 820.996094 700.066406 812.492188 757.511719 797.242188 805.351562 C 796.726562 806.902344 796.210938 808.453125 795.683594 810 L 767.324219 810 C 778.695312 783.25 787.175781 754.792969 787.386719 725.535156 C 787.316406 704.160156 783.28125 682.367188 773.585938 663.195312 C 764.832031 645.921875 751.03125 632.066406 737.332031 618.652344 C 727.925781 609.339844 718.972656 599.707031 710.496094 589.503906 C 705.105469 583.0625 700.15625 576.269531 694.691406 569.894531 C 690.265625 564.695312 682.816406 557.761719 677.566406 565.964844 C 673.464844 573.355469 673.574219 582.230469 673.53125 590.46875 C 673.585938 598.992188 673.804688 607.511719 674.515625 616.003906 C 676.609375 641.300781 679.949219 666.507812 681.234375 691.867188 C 681.914062 707.164062 680.851562 722.523438 678.25 737.609375 C 675.484375 753.683594 670.984375 769.363281 666.433594 785.003906 C 664.046875 793.222656 662.066406 801.566406 660.613281 810 L 624.53125 810 C 634.257812 770.714844 648.664062 732.25 652.050781 691.664062 C 653.164062 677.605469 652.351562 663.496094 651.195312 649.464844 C 649.175781 624.507812 646.425781 599.574219 646.050781 574.519531 C 645.847656 560.710938 646.558594 546.878906 648.628906 533.21875 C 650.066406 524.132812 651.570312 514.972656 654.625 506.265625 C 657.566406 497.28125 666.707031 486.554688 676.136719 494.722656 C 679.949219 498.011719 682.574219 502.382812 684.78125 506.851562 C 688.761719 515.195312 692.3125 523.753906 696.980469 531.75 C 706.996094 548.9375 720.390625 563.855469 734.476562 577.796875 C 758.066406 600.902344 784.535156 622.703125 798.980469 653.113281 Z M 798.980469 653.113281 " fill-opacity="1" fill-rule="nonzero"/><path fill="#000000" d="M 749.101562 696.109375 C 752.203125 708.625 753.308594 721.644531 752.546875 734.507812 C 751.738281 744.710938 749.773438 754.773438 747.277344 764.742188 C 743.609375 780.117188 738.683594 795.121094 733.382812 810 L 703.613281 810 C 705.863281 798.90625 708.175781 787.824219 709.886719 776.648438 C 713.71875 753.578125 716.71875 730.183594 715.578125 706.75 C 715.175781 695.210938 713.59375 683.777344 711.949219 672.363281 C 711.167969 663.96875 707.617188 650.3125 711.960938 642.933594 C 712.796875 641.691406 713.882812 640.421875 715.527344 640.457031 C 721.378906 640.816406 727.292969 652.257812 730.820312 656.839844 C 739.207031 668.695312 745.785156 681.910156 749.101562 696.109375 Z M 749.101562 696.109375 " fill-opacity="1" fill-rule="nonzero"/><path fill="#000000" d="M 877.742188 258.992188 C 877.808594 265.019531 877.863281 272.507812 872.628906 276.542969 C 863.621094 281.964844 849.429688 252.539062 844.339844 245.75 C 829.597656 222.011719 809.28125 202.089844 785.789062 187.039062 C 761.136719 170.597656 733.496094 161.773438 703.828125 161.570312 C 689.355469 161.480469 674.78125 162.699219 660.648438 165.863281 C 644.324219 169.746094 629.019531 176.878906 614.523438 185.207031 C 600.957031 192.847656 586.03125 204.269531 569.582031 200.527344 C 558.09375 197.113281 555.09375 186.683594 552.34375 176.3125 C 548.914062 162.535156 547.117188 148.390625 544.160156 134.511719 C 540.96875 119.121094 537.222656 103.835938 532.691406 88.785156 C 526.308594 67.261719 518.851562 45.980469 515.078125 23.785156 C 513.777344 15.917969 513.230469 7.953125 513.414062 0 L 555.613281 0 C 551.808594 21.847656 552.488281 44.429688 555.84375 66.335938 C 559.117188 87.355469 564.191406 108.371094 573.515625 127.578125 C 580.660156 142.378906 591.296875 151.261719 608.324219 147.289062 C 619.644531 144.816406 629.214844 137.808594 639.609375 133.019531 C 660.71875 122.773438 676.433594 119.445312 699.84375 121.382812 C 718.953125 122.402344 737.355469 128.726562 754.144531 137.699219 C 761.414062 141.5625 768.472656 145.792969 775.601562 149.902344 C 781.738281 153.238281 788.054688 157.132812 795.214844 157.457031 C 809.867188 157.894531 810.214844 140.5 809.101562 129.796875 C 808.003906 120.257812 804.90625 111.101562 802.488281 101.84375 C 798.007812 85.003906 794.058594 67.796875 792.097656 50.371094 C 792.097656 50.40625 792.101562 50.441406 792.105469 50.476562 C 790.101562 33.691406 790.417969 16.785156 792.25 0 L 850.945312 0 C 845.78125 15.355469 841.503906 30.980469 838.644531 46.953125 C 835.597656 66.496094 835.507812 86.480469 837.496094 106.136719 C 840.648438 132.914062 847.535156 159.136719 856.398438 184.5625 C 861.320312 199.28125 866.546875 213.90625 871.226562 228.710938 C 874.277344 238.578125 877.527344 248.574219 877.742188 258.992188 Z M 877.742188 258.992188 " fill-opacity="1" fill-rule="nonzero"/><path fill="#000000" d="M 760.679688 73.933594 C 760.902344 80.367188 761.253906 90.054688 755.09375 93.933594 C 751.855469 95.546875 748.175781 94.28125 744.894531 93.433594 C 737.160156 90.933594 729.605469 87.851562 721.65625 86.0625 C 708.402344 82.800781 694.605469 81.964844 681.070312 83.78125 C 671.464844 84.765625 662.390625 88.257812 653.640625 92.195312 C 644.453125 96.53125 635.75 100.234375 625.351562 98.324219 C 616.808594 97.324219 610.613281 90.542969 606.136719 83.714844 C 594.777344 65.089844 594.066406 41.117188 595.96875 19.929688 C 596.597656 13.226562 597.613281 6.585938 598.925781 0 L 631.429688 0 C 628.101562 16.847656 626.875 34.707031 634.652344 47.632812 C 639.390625 56.230469 647.382812 60.960938 657.03125 62 C 668.375 63.144531 679.019531 57.855469 689.914062 55.574219 C 695.824219 54.097656 701.832031 53.097656 707.867188 52.296875 C 716.371094 51.414062 723.910156 48.769531 725.707031 39.441406 C 727.84375 26.683594 723.15625 14.082031 719.980469 1.878906 C 719.808594 1.25 719.640625 0.628906 719.472656 0 L 747.421875 0 C 748.015625 7.257812 748.941406 14.484375 750.226562 21.660156 C 752.121094 32.621094 754.578125 43.46875 757.140625 54.289062 C 758.648438 60.777344 760.105469 67.285156 760.679688 73.933594 Z M 760.679688 73.933594 " fill-opacity="1" fill-rule="nonzero"/><path fill="#000000" d="M 694.015625 12.828125 C 694.976562 20.421875 692.429688 28.742188 685.925781 33.226562 C 675.890625 39.957031 667.65625 33.710938 664.742188 23.3125 C 662.554688 15.757812 662.441406 7.824219 662.925781 0 L 691.257812 0 C 692.363281 4.238281 693.386719 8.488281 694.015625 12.828125 Z M 694.015625 12.828125 " fill-opacity="1" fill-rule="nonzero"/><path fill="#000000" d="M 431.929688 479.535156 C 460.433594 523.417969 428.511719 598.171875 411.34375 642.566406 C 392.3125 689.5 371.324219 735.804688 357.269531 784.65625 C 354.78125 793.035156 352.597656 801.496094 350.589844 810 L 296.054688 810 C 298.832031 797.296875 302.054688 784.691406 305.824219 772.246094 C 312.707031 749.875 321.367188 727.996094 332.207031 707.230469 C 347.644531 677.144531 369.15625 650.742188 385.476562 621.167969 C 403.867188 587.9375 424.78125 544.105469 400.960938 508.511719 C 387.503906 490 368.613281 485.382812 346.789062 487.023438 C 316.902344 489.105469 288.832031 500.613281 259.5625 506.089844 C 234.757812 510.9375 209.253906 510.660156 184.277344 507.289062 C 150.476562 503 117.464844 494.386719 84.609375 485.585938 C 57.203125 478.347656 28.125 471.96875 0 477.402344 L 0 440.476562 C 13.09375 439.382812 26.304688 439.796875 39.3125 441.773438 C 67.988281 446.144531 95.488281 456.101562 123.660156 462.863281 C 158.035156 471.554688 193.324219 476.988281 228.792969 476.265625 C 257.6875 475.804688 286.292969 470.839844 314.554688 464.957031 C 327.621094 462.160156 340.503906 458.527344 353.566406 455.71875 C 382.335938 449.625 414.132812 452.53125 431.929688 479.535156 Z M 431.929688 479.535156 " fill-opacity="1" fill-rule="nonzero"/><path fill="#000000" d="M 367.410156 547.738281 C 377.71875 565.386719 371.191406 581.621094 360.335938 596.964844 C 351.707031 609.109375 341.757812 620.25 332.699219 632.066406 C 318.976562 649.609375 305.792969 667.644531 294.558594 686.894531 C 285.035156 702.914062 276.902344 719.734375 269.867188 736.984375 C 260.171875 760.703125 252.722656 785.207031 246.378906 810 L 190.269531 810 C 193.804688 800.195312 197.703125 790.523438 201.871094 780.964844 C 220.230469 739.515625 243.050781 699.9375 270.625 663.917969 C 282.523438 648.539062 296.171875 634.664062 309.53125 620.566406 C 316.207031 613.058594 323.964844 605.847656 327.671875 596.3125 C 331.445312 586.59375 327.472656 578.121094 318.695312 573.226562 C 308.800781 568.304688 297.242188 568.199219 286.433594 569.03125 C 251.695312 572.273438 217.898438 581.527344 183.4375 586.585938 C 160.375 589.644531 136.972656 591.421875 113.679688 591.449219 C 75.765625 592.03125 37.878906 586.097656 0 588.949219 L 0 539.230469 C 15.882812 537.039062 32.109375 537.074219 48.285156 538.875 C 69.902344 540.847656 91.421875 544.679688 113.039062 546.988281 C 130.378906 549.027344 147.859375 549.675781 165.304688 548.992188 C 208.785156 546.695312 251.515625 537.65625 294.496094 531.285156 C 310.117188 529.292969 326.25 526.574219 341.785156 530.46875 C 351.726562 533.339844 361.90625 538.648438 367.410156 547.738281 Z M 367.410156 547.738281 " fill-opacity="1" fill-rule="nonzero"/><path fill="#000000" d="M 249.90625 622.445312 C 251.453125 623.886719 252.589844 625.957031 252.589844 628.191406 C 252.238281 637.964844 243.953125 646.585938 238.292969 654.148438 C 227.273438 667.800781 215.710938 681.003906 204.816406 694.753906 C 185.996094 718.316406 168.871094 743.242188 154.09375 769.539062 C 146.503906 782.75 139.515625 796.28125 132.910156 810 L 79.644531 810 C 83.761719 804.109375 87.941406 798.257812 92.199219 792.460938 C 114.6875 761.652344 141.082031 734.019531 164.898438 704.289062 C 169.796875 697.976562 174.695312 691.648438 179.058594 684.953125 C 182.792969 679.140625 189.445312 668.382812 180.484375 664.15625 C 167.355469 658.566406 150.382812 664.5625 137.257812 668.214844 C 122.097656 672.726562 106.945312 677.175781 91.589844 681.019531 C 61.039062 688.800781 29.949219 694.808594 0 704.746094 L 0 648.222656 C 11.167969 646.410156 22.4375 645.25 33.699219 644.203125 C 60.875 641.652344 88.117188 639.8125 115.238281 636.703125 C 133.621094 634.777344 151.960938 632.351562 170.171875 629.183594 C 188.027344 626.03125 205.644531 621.625 223.539062 618.71875 C 231.386719 617.839844 243.957031 616.304688 249.90625 622.445312 Z M 249.90625 622.445312 " fill-opacity="1" fill-rule="nonzero"/><path fill="#000000" d="M 86.207031 723.679688 C 136.128906 700.394531 58.066406 770.175781 51.046875 777.242188 C 40.054688 787.734375 29.519531 798.691406 19.375 810 L 0 810 L 0 769.597656 C 15.3125 761.675781 30.824219 754.117188 46.046875 746.019531 C 59.609375 738.894531 72.59375 730.699219 86.207031 723.679688 Z M 86.207031 723.679688 " fill-opacity="1" fill-rule="nonzero"/><path fill="#000000" d="M 468.0625 299.644531 C 470.183594 314.6875 470.707031 330.300781 466.316406 345.003906 C 457.222656 376.078125 437.816406 401.097656 406.398438 411.492188 C 387.695312 418.195312 367.695312 420.070312 348.097656 422.804688 C 308.664062 427.667969 269.179688 433.390625 229.363281 433.441406 C 188.148438 433.140625 146.824219 428.609375 106.75 418.789062 C 81.472656 412.621094 56.546875 405.082031 31.332031 398.65625 C 21 395.964844 10.554688 393.652344 0 392.085938 L 0 349.105469 C 8.429688 351.011719 16.796875 353.183594 25.105469 355.539062 C 59.058594 364.832031 91.46875 378.957031 125.386719 388.375 C 163.257812 398.421875 202.433594 403.957031 241.636719 404.042969 C 265.226562 404.1875 288.839844 403.023438 312.25 400.085938 C 332.171875 397.417969 352.25 393.683594 370.566406 385.105469 C 386.34375 378.078125 400.960938 367.847656 411.507812 354.039062 C 420.394531 341.832031 426.664062 327.152344 426.902344 311.902344 C 427.003906 301.894531 425.011719 291.910156 421.71875 282.484375 C 418.535156 273.378906 413.9375 264.867188 409.796875 256.183594 C 399.15625 234.851562 394.046875 211.285156 391.761719 187.667969 C 390.417969 174.816406 389.578125 161.851562 386.621094 149.234375 C 380.683594 122.726562 365.152344 99.960938 352.199219 76.507812 C 338.875 52.597656 329.722656 26.628906 323.53125 0 L 361.472656 0 C 362.78125 7.367188 364.535156 14.664062 366.738281 21.84375 C 369.621094 31.445312 373.460938 40.742188 377.980469 49.679688 C 384.53125 62.53125 392.832031 74.363281 400.28125 86.691406 C 414.066406 109.410156 428.007812 132.769531 433.402344 159.101562 C 438.964844 184.105469 441.25 209.835938 448.855469 234.378906 C 455.386719 256.085938 465.179688 276.941406 468.0625 299.644531 Z M 468.0625 299.644531 " fill-opacity="1" fill-rule="nonzero"/><path fill="#000000" d="M 374.738281 285.945312 C 376.859375 298.183594 374.339844 311.042969 368.53125 321.976562 C 361.679688 333.824219 350.800781 342.917969 339.097656 349.769531 C 309.9375 366.097656 267.964844 375.332031 234.597656 374.921875 C 197.628906 373.972656 162.109375 361.542969 128.21875 347.621094 C 97.066406 334.75 67.085938 318.859375 34.792969 308.886719 C 23.335938 305.375 11.71875 302.464844 0 300.003906 L 0 258.847656 C 9.492188 262.390625 18.863281 266.246094 28.101562 270.414062 C 57.910156 283.976562 86.289062 300.449219 116.152344 313.898438 C 139.492188 324.484375 163.675781 333.453125 188.65625 339.285156 C 203.835938 342.953125 219.371094 345.324219 235.003906 345.484375 C 258.339844 345.484375 283.140625 340.160156 301.042969 324.375 C 314.503906 311.808594 322.832031 294.203125 324.46875 275.898438 C 325.867188 263.777344 323.238281 251.53125 317.65625 240.730469 C 310.128906 226.175781 300.789062 212.472656 295.527344 196.828125 C 288.765625 178.214844 287.007812 158.382812 283.3125 139.050781 C 280.976562 127.355469 277.410156 115.886719 272.195312 105.148438 C 262.070312 84.183594 247.082031 66.191406 235.632812 45.96875 C 226.902344 30.9375 219.976562 15.652344 214.644531 0 L 268.804688 0 C 269.300781 2.789062 269.828125 5.570312 270.382812 8.339844 C 274.28125 26.585938 280.488281 44.34375 288.960938 60.972656 C 299.726562 82.46875 315.34375 101.339844 324.460938 123.691406 C 334.25 146.867188 332.820312 172.660156 338.550781 196.855469 C 341.554688 211.996094 347.398438 226.347656 354.480469 240.011719 C 362.203125 254.8125 371.625 269.285156 374.738281 285.945312 Z M 374.738281 285.945312 " fill-opacity="1" fill-rule="nonzero"/><path fill="#000000" d="M 266.011719 236.167969 C 271.34375 254.183594 266.222656 273.089844 253.550781 286.769531 C 248.023438 292.4375 240.707031 295.929688 233.351562 298.601562 C 197.863281 309.242188 154.789062 295.832031 122.84375 279.453125 C 102.300781 269.039062 82.964844 256.46875 63.0625 244.90625 C 44.128906 233.816406 24.59375 223.722656 4.40625 215.105469 C 2.941406 214.476562 1.46875 213.855469 0 213.246094 L 0 169.839844 C 4.121094 171.527344 8.21875 173.265625 12.292969 175.070312 C 41.492188 187.886719 68.855469 204.453125 95.253906 222.273438 C 112.140625 233.632812 129.003906 245.304688 147.78125 253.371094 C 157.804688 257.632812 168.273438 261.496094 179.273438 261.851562 C 186.457031 262.164062 193.898438 261.511719 200.492188 258.449219 C 210.40625 253.9375 217.75 244.265625 218.476562 233.292969 C 219.652344 219.992188 213.359375 207.632812 207.925781 195.90625 C 203.664062 186.464844 199.789062 176.839844 196.679688 166.953125 C 190.816406 148.726562 187.238281 129.371094 177.976562 112.386719 C 172.265625 101.457031 165.132812 91.316406 157.15625 81.921875 C 150.210938 73.882812 142.621094 66.433594 135.183594 58.855469 C 124.523438 48.023438 114.828125 36.253906 106.222656 23.730469 C 100.796875 16.207031 96.0625 8.257812 91.929688 0 L 153.277344 0 C 158.085938 12.898438 163.796875 25.390625 170.410156 37.25 C 194.800781 79.742188 219.894531 84.261719 233.464844 137.917969 C 237.875 154.4375 240.742188 171.402344 246.792969 187.453125 C 249.453125 194.898438 252.378906 202.246094 255.578125 209.476562 C 259.429688 218.265625 263.570312 226.824219 266.011719 236.167969 Z M 266.011719 236.167969 " fill-opacity="1" fill-rule="nonzero"/><path fill="#000000" d="M 158.320312 169.714844 C 162.027344 178.355469 165.570312 187.53125 165.054688 197.105469 C 164.507812 201.558594 162.441406 206.027344 159.027344 208.992188 C 155.96875 211.472656 151.75 210.804688 148.175781 210.035156 C 139.765625 208.058594 132.664062 202.863281 125.699219 197.996094 C 112.808594 188.613281 100.023438 179.046875 86.828125 170.089844 C 72.753906 160.625 58.335938 151.613281 43.316406 143.714844 C 29.292969 136.25 14.738281 129.84375 0 123.9375 L 0 81.96875 C 1.964844 83.105469 3.917969 84.261719 5.863281 85.433594 C 22.609375 95.683594 38.949219 106.597656 54.914062 118.019531 C 63.117188 123.925781 71.476562 130.121094 79.925781 135.824219 C 86.03125 139.777344 92.171875 143.9375 99.046875 146.429688 C 111.421875 150.480469 114.636719 141.847656 111.273438 131.578125 C 108.21875 122.4375 102.3125 114.597656 96.589844 106.964844 C 69.242188 70.296875 33.128906 41.628906 1.914062 8.476562 C 1.273438 7.796875 0.636719 7.113281 0 6.429688 L 0 0 L 52.8125 0 C 56.898438 6.5625 61.164062 13.011719 65.699219 19.277344 C 78.953125 38.28125 94.128906 55.800781 108.402344 74.023438 C 119.792969 88.636719 130.703125 103.828125 138.210938 120.851562 C 144.976562 137.113281 151.265625 153.570312 158.320312 169.714844 Z M 158.320312 169.714844 " fill-opacity="1" fill-rule="nonzero"/></g></g></g></svg>